<svg width="8" height="14" viewBox="0 0 8 14" fill="none" xmlns="http://www.w3.org/2000/svg">
<path d="M7.26026 1.27369C7.47464 1.48935 7.59497 1.78108 7.59497 2.08517C7.59497 2.38925 7.47464 2.68098 7.26026 2.89664L3.18562 7.02883L7.26026 11.1035C7.47464 11.3191 7.59497 11.6109 7.59497 11.9149C7.59497 12.219 7.47464 12.5108 7.26026 12.7264C7.15326 12.8343 7.02595 12.9199 6.88569 12.9784C6.74543 13.0368 6.59498 13.0669 6.44303 13.0669C6.29108 13.0669 6.14064 13.0368 6.00037 12.9784C5.86011 12.9199 5.7328 12.8343 5.6258 12.7264L0.745442 7.84606C0.637558 7.73906 0.551929 7.61176 0.493493 7.47149C0.435057 7.33123 0.404971 7.18078 0.404971 7.02883C0.404971 6.87688 0.435057 6.72644 0.493493 6.58617C0.551929 6.44591 0.637558 6.31861 0.745442 6.2116L5.6258 1.27369C5.7328 1.16581 5.86011 1.08018 6.00037 1.02174C6.14064 0.963307 6.29108 0.933221 6.44303 0.933221C6.59498 0.933221 6.74543 0.963307 6.88569 1.02174C7.02595 1.08018 7.15326 1.16581 7.26026 1.27369Z" fill="#090F4E"/>
</svg>
