<svg width="8" height="14" viewBox="0 0 8 14" fill="none" xmlns="http://www.w3.org/2000/svg">
<path d="M0.73974 1.27369C0.52536 1.48935 0.405029 1.78108 0.405029 2.08517C0.405029 2.38925 0.52536 2.68098 0.73974 2.89664L4.81438 7.02883L0.73974 11.1035C0.52536 11.3191 0.405029 11.6109 0.405029 11.9149C0.405029 12.219 0.52536 12.5108 0.73974 12.7264C0.846743 12.8343 0.974047 12.9199 1.11431 12.9784C1.25457 13.0368 1.40502 13.0669 1.55697 13.0669C1.70892 13.0669 1.85936 13.0368 1.99963 12.9784C2.13989 12.9199 2.2672 12.8343 2.3742 12.7264L7.25456 7.84606C7.36244 7.73906 7.44807 7.61176 7.50651 7.47149C7.56494 7.33123 7.59503 7.18078 7.59503 7.02883C7.59503 6.87688 7.56494 6.72644 7.50651 6.58617C7.44807 6.44591 7.36244 6.31861 7.25456 6.2116L2.3742 1.27369C2.2672 1.16581 2.13989 1.08018 1.99963 1.02174C1.85936 0.963307 1.70892 0.933221 1.55697 0.933221C1.40502 0.933221 1.25457 0.963307 1.11431 1.02174C0.974047 1.08018 0.846743 1.16581 0.73974 1.27369Z" fill="white"/>
</svg>
