<svg width="29" height="30" viewBox="0 0 29 30" fill="none" xmlns="http://www.w3.org/2000/svg">
<path d="M21.7521 10.1618V6.74662C22.2034 6.53569 22.5855 6.20091 22.854 5.78126C23.1224 5.36161 23.2662 4.87434 23.2685 4.37617V4.29781C23.2685 2.84533 22.091 1.66786 20.6386 1.66786H20.5602C19.1077 1.66786 17.9302 2.84533 17.9302 4.29781V4.37617C17.9325 4.87434 18.0763 5.36161 18.3447 5.78126C18.6132 6.20091 18.9953 6.53569 19.4466 6.74662V10.1618C18.1495 10.3604 16.9279 10.8983 15.9055 11.7209L6.53928 4.42548C6.60606 4.18438 6.6409 3.93645 6.64484 3.6876C6.64598 3.10148 6.47327 2.52819 6.14855 2.04024C5.82384 1.55228 5.3617 1.1716 4.8206 0.946332C4.2795 0.721065 3.68374 0.661338 3.10869 0.774705C2.53364 0.888072 2.00513 1.16944 1.59001 1.58322C1.17489 1.997 0.891809 2.5246 0.776578 3.09928C0.661348 3.67396 0.719142 4.26991 0.942651 4.81175C1.16616 5.35358 1.54534 5.81695 2.03223 6.14325C2.51913 6.46956 3.09185 6.64413 3.67797 6.64488C4.19072 6.64246 4.69386 6.50557 5.13716 6.24788L14.3602 13.4249C12.6646 15.9864 12.7099 19.3248 14.4745 21.8395L11.6693 24.6455C11.4424 24.5731 11.2063 24.5345 10.9682 24.5313C9.62478 24.5324 8.53644 25.6219 8.53679 26.9654C8.53714 28.3087 9.62617 29.3976 10.9695 29.398C12.3129 29.3983 13.4024 28.31 13.4036 26.9665C13.4004 26.7285 13.3619 26.4923 13.2892 26.2656L16.0643 23.4895C18.5439 25.3983 21.9494 25.5628 24.6015 23.9017C27.2534 22.2406 28.5918 19.1046 27.9563 16.0406C27.3209 12.9765 24.8459 10.6315 21.7521 10.1618ZM20.6018 21.394C20.0891 21.4078 19.5789 21.3187 19.1012 21.1321C18.6235 20.9454 18.1881 20.6649 17.8206 20.3072C17.4531 19.9494 17.161 19.5217 16.9615 19.0492C16.7621 18.5767 16.6593 18.069 16.6593 17.5561C16.6593 17.0433 16.7621 16.5356 16.9615 16.0631C17.161 15.5906 17.4531 15.1629 17.8206 14.8051C18.1881 14.4474 18.6235 14.1669 19.1012 13.9802C19.5789 13.7936 20.0891 13.7045 20.6018 13.7183C22.6679 13.7906 24.3056 15.4859 24.3068 17.5534C24.3077 19.6206 22.6717 21.3176 20.6056 21.392" fill="white"/>
</svg>
