<svg width="50" height="50" viewBox="0 0 50 50" fill="none" xmlns="http://www.w3.org/2000/svg">
<path fill-rule="evenodd" clip-rule="evenodd" d="M36.976 23.6687C36.9469 16.9865 36.7 12.0094 36.4635 8.72812C36.3485 7.02491 35.6284 5.41893 34.4332 4.20005C33.238 2.98117 31.6465 2.22969 29.9458 2.08125C27.1333 1.82083 23.324 1.5625 19.2708 1.5625C15.2396 1.5625 11.4479 1.81771 8.64062 2.07708C6.92901 2.22946 5.32814 2.98829 4.12661 4.21675C2.92507 5.44522 2.20191 7.06252 2.0875 8.77708C1.83333 12.3396 1.5625 17.8167 1.5625 25C1.5625 34.6365 1.80625 41.7219 1.94583 44.976C1.98617 45.9091 2.38576 46.7904 3.06101 47.4355C3.73626 48.0807 4.63484 48.4397 5.56875 48.4375H43.5344C44.7355 48.4409 45.8912 47.9787 46.7587 47.1479C47.6262 46.3171 48.138 45.1824 48.1865 43.9823C48.2979 41.1698 48.4375 36.6562 48.4375 31.7708C48.4375 28.0146 48.2729 24.6323 48.0958 22.0771C47.8458 18.4771 45.0417 15.6208 41.4188 15.3687C40.9507 15.3368 40.4562 15.3056 39.9354 15.275C40.0354 18.0177 40.1042 21.2583 40.1042 25C40.1042 32.3021 39.974 37.9708 39.849 41.7187C39.8353 42.1264 39.6626 42.5126 39.368 42.7947C39.0734 43.0769 38.6801 43.2326 38.2722 43.2287C37.8643 43.2247 37.4741 43.0614 37.185 42.7736C36.8959 42.4859 36.7308 42.0964 36.725 41.6885C36.903 36.1275 36.9877 30.5639 36.9792 25C36.9792 24.5486 36.9781 24.1049 36.976 23.6687ZM13.5417 10.4167C14.0942 10.4167 14.6241 10.6362 15.0148 11.0269C15.4055 11.4176 15.625 11.9475 15.625 12.5V14.5833C15.625 15.1359 15.4055 15.6658 15.0148 16.0565C14.6241 16.4472 14.0942 16.6667 13.5417 16.6667C12.9891 16.6667 12.4592 16.4472 12.0685 16.0565C11.6778 15.6658 11.4583 15.1359 11.4583 14.5833V12.5C11.4583 11.9475 11.6778 11.4176 12.0685 11.0269C12.4592 10.6362 12.9891 10.4167 13.5417 10.4167ZM15.625 23.9583C15.625 23.4058 15.4055 22.8759 15.0148 22.4852C14.6241 22.0945 14.0942 21.875 13.5417 21.875C12.9891 21.875 12.4592 22.0945 12.0685 22.4852C11.6778 22.8759 11.4583 23.4058 11.4583 23.9583V26.0417C11.4583 26.5942 11.6778 27.1241 12.0685 27.5148C12.4592 27.9055 12.9891 28.125 13.5417 28.125C14.0942 28.125 14.6241 27.9055 15.0148 27.5148C15.4055 27.1241 15.625 26.5942 15.625 26.0417V23.9583ZM25 10.4167C25.5525 10.4167 26.0824 10.6362 26.4731 11.0269C26.8638 11.4176 27.0833 11.9475 27.0833 12.5V14.5833C27.0833 15.1359 26.8638 15.6658 26.4731 16.0565C26.0824 16.4472 25.5525 16.6667 25 16.6667C24.4475 16.6667 23.9176 16.4472 23.5269 16.0565C23.1362 15.6658 22.9167 15.1359 22.9167 14.5833V12.5C22.9167 11.9475 23.1362 11.4176 23.5269 11.0269C23.9176 10.6362 24.4475 10.4167 25 10.4167ZM27.0833 23.9583C27.0833 23.4058 26.8638 22.8759 26.4731 22.4852C26.0824 22.0945 25.5525 21.875 25 21.875C24.4475 21.875 23.9176 22.0945 23.5269 22.4852C23.1362 22.8759 22.9167 23.4058 22.9167 23.9583V26.0417C22.9167 26.5942 23.1362 27.1241 23.5269 27.5148C23.9176 27.9055 24.4475 28.125 25 28.125C25.5525 28.125 26.0824 27.9055 26.4731 27.5148C26.8638 27.1241 27.0833 26.5942 27.0833 26.0417V23.9583ZM19.7917 32.8125C18.6698 32.8125 17.7708 32.8802 17.0573 32.9792C15.1969 33.2354 14.2125 34.8281 14.1448 36.5469C14.0846 38.2528 14.0572 39.9597 14.0625 41.6667C14.0625 42.8885 14.0729 43.925 14.0885 44.8021C14.0913 44.9384 14.1473 45.0682 14.2447 45.1637C14.3421 45.2591 14.473 45.3125 14.6094 45.3125H24.974C25.1103 45.3125 25.2412 45.2591 25.3386 45.1637C25.436 45.0682 25.4921 44.9384 25.4948 44.8021C25.5104 43.925 25.5208 42.8885 25.5208 41.6667C25.5208 39.351 25.4844 37.7021 25.4385 36.5469C25.3708 34.8281 24.3865 33.2354 22.526 32.9792C21.6195 32.8605 20.7059 32.8048 19.7917 32.8125Z" fill="#009BD6"/>
</svg>
