<svg width="50" height="50" viewBox="0 0 50 50" fill="none" xmlns="http://www.w3.org/2000/svg">
<path d="M8.92773 10.2706C8.92773 8.49464 9.63325 6.79138 10.8891 5.53556C12.1449 4.27973 13.8482 3.57422 15.6242 3.57422H34.3742C36.1502 3.57422 37.8534 4.27973 39.1093 5.53556C40.3651 6.79138 41.0706 8.49464 41.0706 10.2706V37.5028C41.0706 38.2132 40.7884 38.8945 40.2861 39.3968C39.7837 39.8992 39.1024 40.1814 38.392 40.1814H11.6313C11.7411 41.1635 12.2091 42.0708 12.9457 42.7296C13.6823 43.3885 14.6359 43.7528 15.6242 43.7528H39.7313C40.0865 43.7528 40.4272 43.8939 40.6783 44.1451C40.9295 44.3962 41.0706 44.7369 41.0706 45.0921C41.0706 45.4473 40.9295 45.7879 40.6783 46.0391C40.4272 46.2903 40.0865 46.4314 39.7313 46.4314H15.6242C13.8482 46.4314 12.1449 45.7258 10.8891 44.47C9.63325 43.2142 8.92773 41.5109 8.92773 39.7349V10.2706ZM29.4634 16.9671C29.4634 15.7831 28.9931 14.6476 28.1559 13.8103C27.3187 12.9731 26.1832 12.5028 24.9992 12.5028C23.8152 12.5028 22.6797 12.9731 21.8424 13.8103C21.0052 14.6476 20.5349 15.7831 20.5349 16.9671C20.5349 18.1511 21.0052 19.2866 21.8424 20.1238C22.6797 20.961 23.8152 21.4314 24.9992 21.4314C26.1832 21.4314 27.3187 20.961 28.1559 20.1238C28.9931 19.2866 29.4634 18.1511 29.4634 16.9671ZM33.0349 26.5653V26.3814C33.0349 24.6331 31.617 23.2171 29.8688 23.2171H20.1295C18.3795 23.2171 16.9634 24.6331 16.9634 26.3814V26.5653C16.9634 29.3546 19.2599 32.1456 24.9992 32.1456C30.7384 32.1456 33.0349 29.3439 33.0349 26.5653Z" fill="#009BD6"/>
</svg>
