<svg width="20" height="20" viewBox="0 0 20 20" fill="none" xmlns="http://www.w3.org/2000/svg">
<path d="M10.0033 5.28257C7.39468 5.28257 5.29058 7.38667 5.29058 9.99526C5.29058 12.6039 7.39468 14.708 10.0033 14.708C12.6119 14.708 14.716 12.6039 14.716 9.99526C14.716 7.38667 12.6119 5.28257 10.0033 5.28257ZM10.0033 13.0591C8.31753 13.0591 6.9394 11.6851 6.9394 9.99526C6.9394 8.30542 8.31343 6.9314 10.0033 6.9314C11.6931 6.9314 13.0671 8.30542 13.0671 9.99526C13.0671 11.6851 11.689 13.0591 10.0033 13.0591ZM16.008 5.08979C16.008 5.70093 15.5158 6.18901 14.9087 6.18901C14.2976 6.18901 13.8095 5.69683 13.8095 5.08979C13.8095 4.48276 14.3017 3.99058 14.9087 3.99058C15.5158 3.99058 16.008 4.48276 16.008 5.08979ZM19.1292 6.20542C19.0595 4.73296 18.7232 3.42866 17.6445 2.35405C16.5699 1.27944 15.2656 0.943115 13.7931 0.869287C12.2755 0.783154 7.7269 0.783154 6.20933 0.869287C4.74097 0.939014 3.43667 1.27534 2.35796 2.34995C1.27925 3.42456 0.947021 4.72886 0.873193 6.20132C0.787061 7.7189 0.787061 12.2675 0.873193 13.7851C0.94292 15.2576 1.27925 16.5619 2.35796 17.6365C3.43667 18.7111 4.73687 19.0474 6.20933 19.1212C7.7269 19.2074 12.2755 19.2074 13.7931 19.1212C15.2656 19.0515 16.5699 18.7152 17.6445 17.6365C18.7191 16.5619 19.0554 15.2576 19.1292 13.7851C19.2154 12.2675 19.2154 7.723 19.1292 6.20542ZM17.1687 15.4134C16.8488 16.2173 16.2294 16.8367 15.4214 17.1607C14.2115 17.6406 11.3404 17.5298 10.0033 17.5298C8.66616 17.5298 5.79097 17.6365 4.58511 17.1607C3.7812 16.8408 3.16187 16.2214 2.83784 15.4134C2.35796 14.2035 2.4687 11.3324 2.4687 9.99526C2.4687 8.65815 2.36206 5.78296 2.83784 4.5771C3.15776 3.77319 3.7771 3.15386 4.58511 2.82983C5.79507 2.34995 8.66616 2.46069 10.0033 2.46069C11.3404 2.46069 14.2156 2.35405 15.4214 2.82983C16.2253 3.14976 16.8447 3.76909 17.1687 4.5771C17.6486 5.78706 17.5378 8.65815 17.5378 9.99526C17.5378 11.3324 17.6486 14.2076 17.1687 15.4134Z" fill="white"/>
</svg>
