<svg width="22" height="22" viewBox="0 0 22 22" fill="none" xmlns="http://www.w3.org/2000/svg">
<path d="M18.875 1.8125H3.1209C2.39902 1.8125 1.8125 2.40723 1.8125 3.1373V18.8627C1.8125 19.5928 2.39902 20.1875 3.1209 20.1875H18.875C19.5969 20.1875 20.1875 19.5928 20.1875 18.8627V3.1373C20.1875 2.40723 19.5969 1.8125 18.875 1.8125ZM7.36602 17.5625H4.64258V8.79336H7.37012V17.5625H7.36602ZM6.0043 7.5957C5.13066 7.5957 4.4252 6.88613 4.4252 6.0166C4.4252 5.14707 5.13066 4.4375 6.0043 4.4375C6.87383 4.4375 7.5834 5.14707 7.5834 6.0166C7.5834 6.89023 6.87793 7.5957 6.0043 7.5957ZM17.5748 17.5625H14.8514V13.2969C14.8514 12.2797 14.8309 10.9713 13.4363 10.9713C12.0172 10.9713 11.7998 12.0787 11.7998 13.223V17.5625H9.07637V8.79336H11.6891V9.99102H11.726C12.091 9.30195 12.9811 8.57598 14.3059 8.57598C17.0621 8.57598 17.5748 10.393 17.5748 12.7555V17.5625Z" fill="white"/>
</svg>
