<svg width="18" height="19" viewBox="0 0 18 19" fill="none" xmlns="http://www.w3.org/2000/svg">
<path d="M16.65 0.5H1.35C0.991958 0.5 0.64858 0.642232 0.395406 0.895406C0.142232 1.14858 0 1.49196 0 1.85V17.15C0 17.508 0.142232 17.8514 0.395406 18.1046C0.64858 18.3578 0.991958 18.5 1.35 18.5H16.65C17.008 18.5 17.3514 18.3578 17.6046 18.1046C17.8578 17.8514 18 17.508 18 17.15V1.85C18 1.49196 17.8578 1.14858 17.6046 0.895406C17.3514 0.642232 17.008 0.5 16.65 0.5ZM5.4 15.8H2.7V7.7H5.4V15.8ZM4.05 6.125C3.74056 6.11616 3.4406 6.01632 3.18758 5.83797C2.93456 5.65962 2.7397 5.41066 2.62737 5.1222C2.51503 4.83374 2.49019 4.51857 2.55595 4.21607C2.6217 3.91358 2.77515 3.63716 2.9971 3.42138C3.21906 3.20559 3.49968 3.05999 3.80391 3.00278C4.10814 2.94556 4.42248 2.97927 4.70766 3.09969C4.99284 3.2201 5.23622 3.42189 5.40737 3.67983C5.57853 3.93778 5.66987 4.24044 5.67 4.55C5.66289 4.97331 5.4885 5.3766 5.18495 5.67173C4.88139 5.96685 4.47335 6.12982 4.05 6.125ZM15.3 15.8H12.6V11.534C12.6 10.256 12.06 9.797 11.358 9.797C11.1522 9.8107 10.9511 9.86493 10.7663 9.95658C10.5815 10.0482 10.4166 10.1755 10.2811 10.331C10.1457 10.4866 10.0422 10.6674 9.97684 10.863C9.91143 11.0586 9.88532 11.2652 9.9 11.471C9.89553 11.5129 9.89553 11.5551 9.9 11.597V15.8H7.2V7.7H9.81V8.87C10.0733 8.4695 10.435 8.14331 10.8605 7.92269C11.286 7.70207 11.761 7.5944 12.24 7.61C13.635 7.61 15.264 8.384 15.264 10.904L15.3 15.8Z" fill="#0A66C2"/>
</svg>
