<svg width="26" height="26" viewBox="0 0 26 26" fill="none" xmlns="http://www.w3.org/2000/svg">
<path d="M25.666 11.3154L22.4922 9.21582V2.13574C22.4922 2.02181 22.4515 1.92415 22.3701 1.84277C22.2887 1.76139 22.1911 1.7207 22.0771 1.7207H4.64551C4.53158 1.7207 4.43392 1.76139 4.35254 1.84277C4.27116 1.92415 4.23047 2.02181 4.23047 2.13574V9.21582L1.05664 11.3154C0.991536 11.3643 0.942708 11.4172 0.910156 11.4741C0.877604 11.5311 0.861328 11.5921 0.861328 11.6572V24.499C0.861328 24.613 0.902018 24.7106 0.983398 24.792C1.06478 24.8734 1.16243 24.9141 1.27637 24.9141H25.4463C25.5602 24.9141 25.6579 24.8734 25.7393 24.792C25.8206 24.7106 25.8613 24.613 25.8613 24.499V11.6572C25.8613 11.5921 25.8451 11.5311 25.8125 11.4741C25.7799 11.4172 25.7311 11.3643 25.666 11.3154ZM4.23047 12.7803L2.93652 12.0723H4.23047V12.7803ZM1.69141 12.3652L11.2129 17.4189L1.69141 23.7178V12.3652ZM13.3613 16.9795L24.0791 24.084H2.64355L13.3613 16.9795ZM15.5098 17.4189L25.0312 12.3652V23.7178L15.5098 17.4189ZM22.4922 12.0723H23.7861L22.4922 12.7803V12.0723ZM24.0791 11.2666H22.4922V10.1924L24.0791 11.2666ZM21.6621 2.55078V13.2197L14.7285 16.8818L13.5811 16.125C13.516 16.0924 13.4427 16.0762 13.3613 16.0762C13.2799 16.0762 13.2067 16.0924 13.1416 16.125L11.9941 16.8818L5.06055 13.2197V2.55078H21.6621ZM4.23047 11.2666H2.64355L4.23047 10.1924V11.2666ZM13.3613 12.6094H16.6572C16.7712 12.6094 16.8688 12.5687 16.9502 12.4873C17.0316 12.4059 17.0723 12.3083 17.0723 12.1943C17.0723 12.0804 17.0316 11.9827 16.9502 11.9014C16.8688 11.82 16.7712 11.7793 16.6572 11.7793H13.3613C12.5638 11.7793 11.8843 11.4985 11.3228 10.937C10.7612 10.3755 10.4805 9.69596 10.4805 8.89844V8.77637C10.4805 7.97884 10.7612 7.29932 11.3228 6.73779C11.8843 6.17627 12.5638 5.89551 13.3613 5.89551C14.1589 5.89551 14.8384 6.17627 15.3999 6.73779C15.9614 7.29932 16.2422 7.97884 16.2422 8.77637V9.06934C16.2422 9.24837 16.1812 9.39893 16.0591 9.521C15.937 9.64307 15.7946 9.7041 15.6318 9.7041C15.4528 9.7041 15.3022 9.64307 15.1802 9.521C15.0581 9.39893 14.9971 9.24837 14.9971 9.06934V8.50781C14.9971 8.00326 14.8221 7.57601 14.4722 7.22607C14.1222 6.87614 13.7031 6.70117 13.2148 6.70117C12.7103 6.70117 12.283 6.87614 11.9331 7.22607C11.5832 7.57601 11.4082 8.00326 11.4082 8.50781C11.4082 8.99609 11.5832 9.4152 11.9331 9.76514C12.283 10.1151 12.7103 10.29 13.2148 10.29C13.4427 10.29 13.6543 10.2493 13.8496 10.168C14.0449 10.0866 14.224 9.98079 14.3867 9.85059C14.5169 10.0459 14.6919 10.2087 14.9116 10.3389C15.1313 10.4691 15.3714 10.5342 15.6318 10.5342C16.0225 10.5342 16.3602 10.3918 16.645 10.1069C16.9298 9.8221 17.0723 9.47624 17.0723 9.06934V8.77637C17.0723 7.75098 16.7101 6.87614 15.9858 6.15186C15.2616 5.42757 14.3867 5.06543 13.3613 5.06543C12.3359 5.06543 11.4611 5.42757 10.7368 6.15186C10.0125 6.87614 9.65039 7.75098 9.65039 8.77637V8.89844C9.65039 9.92383 10.0125 10.7987 10.7368 11.5229C11.4611 12.2472 12.3359 12.6094 13.3613 12.6094ZM13.2148 9.45996C12.9382 9.45996 12.7062 9.36637 12.519 9.1792C12.3319 8.99202 12.2383 8.76823 12.2383 8.50781C12.2383 8.23112 12.3319 7.99919 12.519 7.81201C12.7062 7.62484 12.9382 7.53125 13.2148 7.53125C13.4753 7.53125 13.6991 7.62484 13.8862 7.81201C14.0734 7.99919 14.167 8.23112 14.167 8.50781C14.167 8.76823 14.0734 8.99202 13.8862 9.1792C13.6991 9.36637 13.4753 9.45996 13.2148 9.45996Z" fill="#01B2D8"/>
</svg>
