<svg width="42" height="39" viewBox="0 0 42 39" fill="none" xmlns="http://www.w3.org/2000/svg">
<path d="M7.78268 37.6633C7.48356 37.9234 7.11644 38.0928 6.72442 38.1515C6.33241 38.2103 5.93176 38.1559 5.56953 37.9949C5.2073 37.834 4.89852 37.573 4.67944 37.2426C4.46035 36.9123 4.34006 36.5263 4.33268 36.1299V31.457C3.22761 31.457 2.16781 31.018 1.3864 30.2366C0.605003 29.4552 0.166016 28.3954 0.166016 27.2904V12.707C0.166016 11.602 0.605003 10.5422 1.3864 9.76075C2.16781 8.97935 3.22761 8.54036 4.33268 8.54036H27.2494C28.3544 8.54036 29.4142 8.97935 30.1956 9.76075C30.977 10.5422 31.416 11.602 31.416 12.707V27.2904C31.416 28.3954 30.977 29.4552 30.1956 30.2366C29.4142 31.018 28.3544 31.457 27.2494 31.457H16.8389L7.78268 37.6633ZM33.4994 21.0758C33.4926 21.332 33.4926 21.5883 33.4994 21.8445V21.0758ZM33.4994 21.0758C33.5091 20.8536 33.5119 18.0626 33.5077 12.7029C33.506 11.0463 32.8468 9.45824 31.6749 8.28749C30.503 7.11674 28.9142 6.45911 27.2577 6.45911H10.5827V4.3737C10.5827 3.26863 11.0217 2.20882 11.8031 1.42742C12.5845 0.646018 13.6443 0.207031 14.7493 0.207031L37.666 0.207031C38.7711 0.207031 39.8309 0.646018 40.6123 1.42742C41.3937 2.20882 41.8327 3.26863 41.8327 4.3737V18.957C41.8327 20.0621 41.3937 21.1219 40.6123 21.9033C39.8309 22.6847 38.7711 23.1237 37.666 23.1237V27.7966C37.6586 28.1929 37.5383 28.5789 37.3193 28.9093C37.1002 29.2396 36.7914 29.5006 36.4292 29.6616C36.0669 29.8226 35.6663 29.8769 35.2743 29.8182C34.8823 29.7594 34.5151 29.59 34.216 29.3299L33.4994 28.8383V21.0758Z" fill="#009BD6"/>
</svg>
