<svg width="20" height="26" viewBox="0 0 20 26" fill="none" xmlns="http://www.w3.org/2000/svg">
<path fill-rule="evenodd" clip-rule="evenodd" d="M7.12133 9.99809C7.12133 12.3254 8.2964 14.8239 10.8975 14.8239C12.8256 14.8239 14.765 13.318 14.765 9.96386C14.765 7.02047 13.2363 5.03538 10.966 5.03538C9.095 5.03538 7.12133 6.33596 7.12133 9.99809ZM11.8673 0.734375C16.5105 0.734375 19.6364 4.41933 19.6364 9.89541C19.6364 15.2916 16.3394 19.0564 11.6391 19.0564C9.39162 19.0564 7.95415 18.0981 7.20119 17.4022C7.20119 17.5619 7.2126 17.7559 7.2126 17.9498V25.2627H2.39821V5.77694C2.39821 5.49173 2.30694 5.40046 2.02173 5.40046H0.378906V1.13367H4.41751C6.2771 1.13367 6.75626 2.08058 6.84752 2.81072C7.60049 1.96649 9.16345 0.734375 11.8673 0.734375Z" fill="white"/>
</svg>
