<svg width="26" height="26" viewBox="0 0 26 26" fill="none" xmlns="http://www.w3.org/2000/svg">
<path d="M20.6119 16.2949C20.3515 16.0345 20.0707 15.8351 19.7696 15.6968C19.4685 15.5584 19.1552 15.4893 18.8297 15.4893C18.5042 15.4893 18.1908 15.5584 17.8897 15.6968C17.5886 15.8351 17.2997 16.0345 17.023 16.2949L15.3629 17.9551C15.2978 17.9225 15.2286 17.89 15.1554 17.8574C15.0821 17.8249 15.0129 17.7842 14.9478 17.7354C14.8665 17.7028 14.781 17.6621 14.6915 17.6133C14.602 17.5645 14.5165 17.5156 14.4351 17.4668C13.6539 16.9785 12.9052 16.4048 12.189 15.7456C11.4729 15.0864 10.773 14.3418 10.0894 13.5117C9.76392 13.0885 9.48723 12.6979 9.25936 12.3398C9.0315 11.9818 8.83618 11.6237 8.67342 11.2656C8.88501 11.0703 9.09253 10.8709 9.29598 10.6675C9.49943 10.464 9.69881 10.2646 9.89413 10.0693C9.95923 9.98796 10.0325 9.91064 10.1139 9.8374C10.1952 9.76416 10.2685 9.68685 10.3336 9.60547C10.887 9.05208 11.1637 8.4458 11.1637 7.78662C11.1637 7.12744 10.887 6.52116 10.3336 5.96777L8.89315 4.52734C8.81177 4.44596 8.73039 4.36051 8.64901 4.271C8.56763 4.18148 8.48625 4.09603 8.40487 4.01465C8.24211 3.85189 8.07935 3.68913 7.91659 3.52637C7.75383 3.36361 7.59107 3.20085 7.42831 3.03809C7.16789 2.77767 6.88713 2.58236 6.58602 2.45215C6.28491 2.32194 5.9716 2.25684 5.64608 2.25684C5.32056 2.25684 5.00725 2.32194 4.70614 2.45215C4.40503 2.58236 4.12427 2.77767 3.86385 3.03809C3.86385 3.03809 3.85572 3.03809 3.83944 3.03809L2.05721 4.86914C1.71542 5.19466 1.45093 5.56494 1.26376 5.97998C1.07658 6.39502 0.95858 6.83854 0.909752 7.31055C0.844648 8.07552 0.897545 8.7998 1.06844 9.4834C1.23934 10.167 1.41431 10.7448 1.59335 11.2168C2.01652 12.3724 2.5577 13.4995 3.21688 14.5981C3.87606 15.6968 4.67766 16.8158 5.62167 17.9551C6.2076 18.6549 6.81796 19.306 7.45272 19.9082C8.08749 20.5267 8.75074 21.1086 9.44247 21.6538C10.1342 22.1991 10.8463 22.6995 11.5787 23.1553C12.3274 23.6273 13.1005 24.0505 13.898 24.4248C14.5002 24.7178 15.196 25.0067 15.9854 25.2915C16.7748 25.5763 17.6252 25.7513 18.5367 25.8164C18.5855 25.8164 18.6384 25.8164 18.6954 25.8164C18.7524 25.8164 18.8134 25.8164 18.8785 25.8164C19.4807 25.8164 20.0382 25.7065 20.5509 25.4868C21.0636 25.2671 21.5152 24.9375 21.9058 24.498C21.9221 24.498 21.9303 24.498 21.9303 24.498C21.9303 24.498 21.9303 24.4899 21.9303 24.4736C22.0767 24.3109 22.2273 24.1522 22.3819 23.9976C22.5365 23.8429 22.6952 23.6842 22.858 23.5215C22.9719 23.4238 23.0859 23.318 23.1998 23.2041C23.3137 23.0902 23.4277 22.9681 23.5416 22.8379C23.802 22.5775 24.0014 22.2926 24.1397 21.9834C24.2781 21.6742 24.3473 21.3568 24.3473 21.0312C24.3473 20.7057 24.2781 20.3883 24.1397 20.0791C24.0014 19.7699 23.7939 19.4769 23.5172 19.2002L20.6119 16.2949ZM22.5162 21.8613C22.4023 21.9753 22.2924 22.0811 22.1866 22.1787C22.0808 22.2764 21.971 22.3822 21.857 22.4961C21.6943 22.6589 21.5234 22.8298 21.3443 23.0088C21.1653 23.1878 20.9944 23.3669 20.8316 23.5459C20.5712 23.8389 20.2782 24.0545 19.9527 24.1929C19.6272 24.3312 19.261 24.4004 18.8541 24.4004C18.8215 24.4004 18.7849 24.4004 18.7442 24.4004C18.7035 24.4004 18.6588 24.4004 18.6099 24.4004C17.8287 24.3353 17.0841 24.1766 16.3761 23.9243C15.6681 23.672 15.0455 23.4157 14.5084 23.1553C13.7597 22.7972 13.0354 22.3984 12.3355 21.959C11.6357 21.5195 10.9602 21.0475 10.3092 20.543C9.65812 20.0384 9.0315 19.4932 8.42928 18.9072C7.82707 18.3213 7.25741 17.7028 6.7203 17.0518C5.82512 15.9613 5.06828 14.9033 4.44979 13.8779C3.8313 12.8525 3.31861 11.8027 2.91171 10.7285C2.66756 10.0775 2.50074 9.4834 2.41122 8.94629C2.3217 8.40918 2.29322 7.90462 2.32577 7.43262C2.35832 7.12337 2.43156 6.83854 2.54549 6.57812C2.65943 6.31771 2.83033 6.08171 3.05819 5.87012L4.84042 4.06348C4.97062 3.93327 5.1049 3.83968 5.24325 3.78271C5.38159 3.72575 5.51587 3.69727 5.64608 3.69727C5.80884 3.69727 5.95939 3.73796 6.09774 3.81934C6.23609 3.90072 6.34595 3.9821 6.42733 4.06348C6.59009 4.22624 6.74878 4.38493 6.9034 4.53955C7.05803 4.69417 7.21672 4.85287 7.37948 5.01562C7.46086 5.09701 7.54631 5.18246 7.63583 5.27197C7.72534 5.36149 7.81079 5.44694 7.89217 5.52832L9.3326 6.96875C9.6093 7.24544 9.74764 7.51807 9.74764 7.78662C9.74764 8.05518 9.6093 8.3278 9.3326 8.60449C9.25122 8.68587 9.17391 8.76318 9.10067 8.83643C9.02743 8.90967 8.95012 8.98698 8.86874 9.06836C8.65715 9.29622 8.44149 9.51595 8.22176 9.72754C8.00204 9.93913 7.77824 10.1426 7.55038 10.3379C7.55038 10.3542 7.54631 10.3623 7.53817 10.3623C7.53003 10.3623 7.52596 10.3623 7.52596 10.3623C7.2981 10.5902 7.18417 10.8099 7.18417 11.0215C7.18417 11.2331 7.20858 11.4121 7.25741 11.5586C7.25741 11.5749 7.25741 11.5871 7.25741 11.5952C7.25741 11.6034 7.26555 11.6074 7.28182 11.6074C7.46086 12.0632 7.68872 12.5148 7.96542 12.9624C8.24211 13.41 8.57577 13.8861 8.96639 14.3906H8.99081C9.70695 15.2858 10.4557 16.0874 11.2369 16.7954C12.0182 17.5034 12.832 18.126 13.6783 18.6631C13.776 18.7282 13.8818 18.7892 13.9957 18.8462C14.1096 18.9032 14.2154 18.9561 14.3131 19.0049C14.4107 19.0537 14.5043 19.1025 14.5938 19.1514C14.6834 19.2002 14.7688 19.249 14.8502 19.2979C14.8502 19.2979 14.8583 19.3019 14.8746 19.3101C14.8909 19.3182 14.899 19.3223 14.899 19.3223C14.9967 19.3711 15.0862 19.4077 15.1676 19.4321C15.2489 19.4565 15.3385 19.4688 15.4361 19.4688C15.6477 19.4688 15.8227 19.4199 15.961 19.3223C16.0994 19.2246 16.1848 19.1514 16.2174 19.1025L18.024 17.2959C18.1217 17.1982 18.2397 17.1087 18.378 17.0273C18.5164 16.946 18.6669 16.9053 18.8297 16.9053C18.9924 16.9053 19.1389 16.946 19.2691 17.0273C19.3993 17.1087 19.5051 17.1901 19.5865 17.2715C19.5865 17.2878 19.5865 17.2959 19.5865 17.2959C19.5865 17.2959 19.5946 17.2959 19.6109 17.2959L22.5162 20.2012C22.7766 20.4779 22.9068 20.7546 22.9068 21.0312C22.9068 21.3079 22.7766 21.5846 22.5162 21.8613ZM14.3619 6.74902C15.0618 6.87923 15.721 7.10303 16.3394 7.42041C16.9579 7.73779 17.5195 8.14876 18.024 8.65332C18.5123 9.15788 18.9192 9.7194 19.2447 10.3379C19.5702 10.9564 19.79 11.6074 19.9039 12.291C19.9364 12.4701 20.0178 12.6125 20.148 12.7183C20.2782 12.8241 20.4329 12.877 20.6119 12.877C20.6282 12.877 20.6445 12.877 20.6607 12.877C20.677 12.877 20.7014 12.877 20.734 12.877C20.9293 12.8444 21.0839 12.7467 21.1978 12.584C21.3118 12.4212 21.3525 12.2422 21.3199 12.0469C21.1734 11.2168 20.9049 10.4274 20.5142 9.67871C20.1236 8.93001 19.6272 8.25456 19.025 7.65234C18.4228 7.05013 17.7473 6.55371 16.9986 6.16309C16.2499 5.77246 15.4605 5.50391 14.6305 5.35742C14.4351 5.32487 14.2561 5.36556 14.0933 5.47949C13.9306 5.59342 13.8329 5.74805 13.8004 5.94336C13.7678 6.1224 13.8044 6.29329 13.9102 6.45605C14.016 6.61881 14.1666 6.71647 14.3619 6.74902ZM25.8365 11.8516C25.7226 11.1517 25.5517 10.4762 25.3238 9.8252C25.1122 9.17415 24.8477 8.54346 24.5304 7.93311C24.213 7.32275 23.8508 6.73275 23.4439 6.16309C23.0208 5.6097 22.565 5.08073 22.0767 4.57617C21.5722 4.08789 21.0432 3.6403 20.4898 3.2334C19.9202 2.81022 19.3302 2.44401 18.7198 2.13477C18.1095 1.82552 17.4788 1.55697 16.8277 1.3291C16.1767 1.11751 15.5094 0.946615 14.8258 0.816406C14.6305 0.783854 14.4514 0.824545 14.2887 0.938477C14.1259 1.05241 14.0282 1.20703 13.9957 1.40234C13.9631 1.59766 14.0038 1.77669 14.1178 1.93945C14.2317 2.10221 14.3863 2.19987 14.5816 2.23242C15.8186 2.44401 16.9864 2.83463 18.085 3.4043C19.1837 3.97396 20.1806 4.70638 21.0758 5.60156C21.971 6.48047 22.7034 7.47331 23.273 8.58008C23.8427 9.68685 24.2252 10.8506 24.4205 12.0713C24.453 12.2503 24.5385 12.3927 24.6768 12.4985C24.8152 12.6043 24.9657 12.6572 25.1285 12.6572C25.1611 12.6572 25.1855 12.6572 25.2017 12.6572C25.218 12.6572 25.2343 12.6572 25.2506 12.6572C25.4459 12.6247 25.6005 12.527 25.7144 12.3643C25.8284 12.2015 25.8691 12.0306 25.8365 11.8516Z" fill="#01B2D8"/>
</svg>
