<svg width="26" height="26" viewBox="0 0 26 26" fill="none" xmlns="http://www.w3.org/2000/svg">
<path d="M25.4707 13C25.4707 19.6893 20.0487 25.1094 13.3613 25.1094C6.67397 25.1094 1.25195 19.6893 1.25195 13C1.25195 6.3146 6.67397 0.890625 13.3613 0.890625C20.0487 0.890625 25.4707 6.3146 25.4707 13ZM13.6863 4.89453C11.0253 4.89453 9.32812 6.01548 7.99541 8.00771C7.82275 8.26582 7.88052 8.61392 8.12798 8.80156L9.82227 10.0862C10.0764 10.279 10.4385 10.2331 10.636 9.98262C11.5083 8.87627 12.1063 8.23472 13.434 8.23472C14.4315 8.23472 15.6653 8.87671 15.6653 9.84399C15.6653 10.5752 15.0617 10.9508 14.0768 11.503C12.9281 12.1469 11.4082 12.9483 11.4082 14.9531V15.1484C11.4082 15.472 11.6706 15.7344 11.9941 15.7344H14.7285C15.0521 15.7344 15.3145 15.472 15.3145 15.1484V15.0833C15.3145 13.6936 19.3763 13.6357 19.3763 9.875C19.3763 7.04287 16.4385 4.89453 13.6863 4.89453ZM13.3613 17.0039C12.1228 17.0039 11.1152 18.0115 11.1152 19.25C11.1152 20.4885 12.1228 21.4961 13.3613 21.4961C14.5999 21.4961 15.6074 20.4885 15.6074 19.25C15.6074 18.0115 14.5999 17.0039 13.3613 17.0039Z" fill="#01B2D8"/>
</svg>
