<svg width="21" height="21" viewBox="0 0 21 21" fill="none" xmlns="http://www.w3.org/2000/svg">
<g clip-path="url(#clip0_1_6033)">
<path d="M1.10156 11.7196L3.65469 9.20394L8.00156 8.43362L7.57187 10.7086L1.69531 12.5149L1.31562 12.3508L1.10156 11.7196Z" fill="#CA2C31" stroke="#CA2C31" stroke-width="0.5625"/>
<path d="M4.09609 9.85081L1.32422 12.3696L3.36328 13.3633L6.45859 11.7836V11.0383L7.09141 9.33206L4.09609 9.85081ZM10.6555 14.2867L9.31641 14.868L8.05234 17.5477C8.05234 17.5477 9.16484 20.0118 9.21484 20.0118C9.26484 20.0118 9.89766 20.0617 9.89766 20.0617L12.1477 17.5461L12.7164 13.2492L10.6555 14.2867Z" fill="#A02422" stroke="#A02422" stroke-width="0.5625"/>
<path d="M9.34023 16.2664C9.34023 16.2664 10.0855 16.1149 10.6168 15.8617C11.148 15.6086 11.8043 15.2305 11.8043 15.2305L11.5637 17.3289L9.21211 20.0055C9.21211 20.0055 9.11992 19.8914 8.7293 19.0414C8.41836 18.3633 8.31055 18.1211 8.31055 18.1211L9.34023 16.2664Z" fill="#CA2C31" stroke="#CA2C31" stroke-width="0.5625"/>
<path d="M5.44593 13.1142C5.44593 13.1142 4.54906 13.0392 3.56625 14.2814C2.66937 15.4157 2.24906 17.2626 2.08656 17.7376C1.92406 18.2126 1.535 18.3095 1.66468 18.5267C1.79437 18.7439 2.35531 18.7314 3.0475 18.6454C3.73968 18.5595 4.33343 18.3423 4.33343 18.3423C4.33343 18.3423 4.30375 18.4173 4.20375 18.5798C4.16781 18.6376 4.04281 18.7204 4.05218 18.8064C4.07406 19.0111 5.82718 19.0157 7.22718 17.5751C8.73968 16.0204 8.00531 14.7454 8.00531 14.7454L5.44593 13.1142Z" fill="#F7D74D" stroke="#F7D74D" stroke-width="0.5625"/>
<path d="M5.71607 13.8399C5.71607 13.8399 4.74888 13.8914 3.94888 15.1336C3.14888 16.3758 2.777 17.8149 2.85357 17.9117C2.92857 18.0086 4.41919 17.4696 4.777 17.5774C5.02232 17.6524 4.89575 17.9008 4.96138 17.9664C5.01607 18.0211 5.66294 18.1133 6.70982 16.9789C7.75825 15.8446 7.50982 14.2508 7.50982 14.2508L5.71607 13.8399Z" fill="#FBF0B4" stroke="#FBF0B4" stroke-width="0.5625"/>
<path d="M6.19106 12.1446C6.19106 12.1446 5.70512 12.5774 5.53168 12.8258C5.35825 13.0742 5.35825 13.0961 5.36918 13.1711C5.38012 13.2461 5.55981 14.0696 6.30825 14.7914C7.227 15.6774 8.04731 15.7961 8.16606 15.7961C8.28481 15.7961 9.07387 14.9102 9.07387 14.9102L6.19106 12.1446Z" fill="#858585" stroke="#858585" stroke-width="0.5625"/>
<path d="M8.33984 14.768C8.33984 14.768 9.12734 15.2852 10.4477 14.8414C12.2523 14.2352 13.5758 12.8789 15.2148 11.1664C16.7961 9.51331 18.1227 7.46175 18.1227 7.46175L17.193 4.34769L8.33984 14.768Z" fill="#437687" stroke="#437687" stroke-width="0.5625"/>
<path d="M11.1348 13.0617L11.352 12.3867L11.8957 12.4633C11.8957 12.4633 12.3098 12.6586 12.6145 12.8008C12.9191 12.943 13.3113 13.0508 13.3113 13.0508L12.5379 13.7039C12.5379 13.7039 12.116 13.5446 11.8082 13.4102C11.4613 13.2586 11.1348 13.0617 11.1348 13.0617Z" fill="#3F545F" stroke="#3F545F" stroke-width="0.5625"/>
<path d="M13.6859 3.03519C13.6859 3.03519 12.1828 3.90706 10.0281 5.94612C8.08591 7.78362 6.64684 9.44612 6.29841 10.8602C6.00778 12.0446 6.16247 12.7633 6.82341 13.5399C7.52184 14.3617 8.34059 14.7696 8.34059 14.7696C8.34059 14.7696 8.95622 14.7789 11.525 12.8024C14.7297 10.3352 17.2968 6.20394 17.2968 6.20394L13.6859 3.03519Z" fill="#8DAFBF" stroke="#8DAFBF" stroke-width="0.5625"/>
<path d="M16.7904 7.05111C16.7904 7.05111 15.4826 6.4933 14.5498 5.19174C13.6232 3.89955 13.6967 3.02611 13.6967 3.02611C13.6967 3.02611 14.4717 2.4183 16.2139 1.72299C17.3857 1.2558 18.9811 1.01674 19.5061 1.4058C20.0311 1.79486 19.1467 3.74643 19.1467 3.74643L17.5357 6.86518L16.7904 7.05111Z" fill="#D83F22" stroke="#D83F22" stroke-width="0.5625"/>
<path d="M11.1629 13.0758C11.1629 13.0758 10.0332 12.4992 9.31445 11.6789C7.95508 10.1305 7.67383 8.4305 7.67383 8.4305L8.35664 7.62894C8.35664 7.62894 8.52695 9.43519 9.98477 10.9961C10.9348 12.0133 11.927 12.4789 11.927 12.4789C11.927 12.4789 11.7285 12.6461 11.516 12.8086C11.3801 12.9133 11.1629 13.0758 11.1629 13.0758Z" fill="#6896A5" stroke="#6896A5" stroke-width="0.5625"/>
<path d="M18.1219 7.46331C18.1219 7.46331 18.8 6.64612 19.4422 4.80394C20.3391 2.23519 19.5578 1.45706 19.5578 1.45706C19.5578 1.45706 19.2937 2.67894 18.3766 4.37737C17.6406 5.73831 16.75 7.03362 16.75 7.03362C16.75 7.03362 17.2406 7.25394 17.5062 7.3305C17.8406 7.42737 18.1219 7.46331 18.1219 7.46331Z" fill="#A02422" stroke="#A02422" stroke-width="0.5625"/>
<path d="M6.73275 11.3953C6.93588 11.5891 7.24369 11.386 7.44525 10.911C7.64838 10.436 7.64525 10.1703 7.489 10.0578C7.29525 9.91722 6.97025 10.225 6.82806 10.4985C6.67181 10.8016 6.57963 11.2485 6.73275 11.3953ZM13.7859 3.65628C13.7859 3.65628 12.5968 4.51097 11.3281 5.67347C10.164 6.74066 9.39213 7.57503 9.28588 7.76878C9.17338 7.97659 9.17181 8.27034 9.25931 8.42034C9.34681 8.57034 9.54056 8.64847 9.71713 8.51722C9.89369 8.38441 11.1515 6.99378 12.2874 6.00003C13.3265 5.09066 14.1281 4.51409 14.1281 4.51409C14.1281 4.51409 14.4531 3.93909 14.3999 3.80784C14.3468 3.67503 13.7859 3.65628 13.7859 3.65628Z" fill="#B3E1EE" stroke="#B3E1EE" stroke-width="0.5625"/>
<path d="M13.7852 3.65861C13.7852 3.65861 14.6633 2.98517 15.6195 2.51174C16.5086 2.07111 17.393 1.70392 17.5523 2.02267C17.7039 2.3258 16.7133 2.7383 15.8414 3.29455C14.9695 3.8508 14.1305 4.51486 14.1305 4.51486C14.1305 4.51486 14.0023 4.28049 13.9195 4.0633C13.8671 3.93106 13.8222 3.79595 13.7852 3.65861Z" fill="#ED6A65" stroke="#ED6A65" stroke-width="0.5625"/>
<path d="M14.5101 6.64456C13.6398 5.84299 12.4289 6.05862 11.832 6.77112C11.2195 7.50549 11.2648 8.62737 11.9883 9.30237C12.6461 9.91487 13.8695 10.0539 14.607 9.19455C15.2633 8.43205 15.2226 7.29924 14.5101 6.64456Z" fill="#E1E1E1" stroke="#E1E1E1" stroke-width="0.5625"/>
<path d="M12.2815 7.05478C11.7643 7.56259 11.7924 8.56884 12.408 9.02822C12.9455 9.42978 13.708 9.40947 14.1862 8.9204C14.6643 8.43134 14.6643 7.54228 14.2158 7.0829C13.7002 6.55634 12.8737 6.47353 12.2815 7.05478Z" fill="#3F545F" stroke="#3F545F" stroke-width="0.5625"/>
<path d="M8.32408 12.5276C8.32408 12.5276 9.29127 11.5464 9.39752 11.6526C9.50377 11.7589 9.48971 12.3542 9.02721 13.0167C8.56315 13.6792 7.54283 14.8589 6.73502 15.6542C5.93815 16.437 4.81471 17.3323 4.70846 17.3167C4.62565 17.3042 4.28971 17.137 4.15533 16.9745C4.02408 16.8135 4.41627 16.0526 4.57408 15.801C4.73346 15.5495 8.32408 12.5276 8.32408 12.5276Z" fill="#A02524" stroke="#A02524" stroke-width="0.5625"/>
<path d="M3.82846 16.4242C3.81596 16.6492 4.15971 16.9773 4.15971 16.9773L9.39721 11.6508C9.39721 11.6508 9.1519 11.3742 8.43002 11.8227C7.7019 12.2758 7.0644 12.8195 6.12377 13.7305C4.81283 15.0023 3.84096 16.1992 3.82846 16.4242Z" fill="#CA2C31" stroke="#CA2C31" stroke-width="0.5625"/>
<path d="M3.48887 6.2856C3.31544 6.45904 3.30762 6.73716 3.50137 6.89654C3.67325 7.03872 3.95294 6.94654 4.05762 6.81841C4.16231 6.69029 4.14981 6.41216 4.01075 6.27466C3.87169 6.1356 3.59512 6.18091 3.48887 6.2856Z" fill="white" stroke="white" stroke-width="0.5625"/>
<path opacity="0.5" d="M6.92041 6.08219C6.78916 6.2275 6.83134 6.44313 6.95322 6.52281C7.07509 6.6025 7.25791 6.59469 7.34697 6.48531C7.42666 6.38688 7.43603 6.19 7.31416 6.06813C7.20791 5.96344 7.00478 5.98844 6.92041 6.08219Z" fill="white" stroke="white" stroke-width="0.5625"/>
<path d="M9.1912 2.3704C9.1912 2.3704 9.38183 1.82665 9.49433 1.8204C9.60839 1.81415 9.77245 2.36415 9.77245 2.36415C9.77245 2.36415 10.3365 2.3704 10.374 2.45321C10.4224 2.55946 10.0131 2.91571 10.0131 2.91571C10.0131 2.91571 10.1459 3.44696 10.0834 3.51102C10.0131 3.58133 9.52714 3.30165 9.52714 3.30165C9.52714 3.30165 9.02714 3.65008 8.91933 3.55477C8.82558 3.47196 9.02089 2.90946 9.02089 2.90946C9.02089 2.90946 8.55214 2.56727 8.57714 2.47196C8.61307 2.33758 9.1912 2.3704 9.1912 2.3704ZM15.6693 15.4079C15.8584 15.5126 16.0959 15.4532 16.1834 15.2516C16.2631 15.072 16.1162 14.8579 15.9834 14.8001C15.8506 14.7423 15.6178 14.8188 15.5334 14.9704C15.4506 15.1204 15.5553 15.3454 15.6693 15.4079ZM18.3537 10.8001C18.2459 10.6329 18.0131 10.5782 17.8615 10.7126C17.7146 10.8438 17.7506 11.0501 17.8334 11.1548C17.9162 11.2595 18.1381 11.2985 18.2724 11.2126C18.4068 11.1266 18.4193 10.9001 18.3537 10.8001Z" fill="white" stroke="white" stroke-width="0.5625"/>
</g>
<defs>
<clipPath id="clip0_1_6033">
<rect width="20" height="20" fill="white" transform="translate(0.511719 0.511749)"/>
</clipPath>
</defs>
</svg>
