<svg width="265" height="150" viewBox="0 0 265 150" fill="none" xmlns="http://www.w3.org/2000/svg">
<path d="M3.36987 113.865C2.9276 113.534 2.30092 113.625 1.97014 114.067C1.63936 114.509 1.72974 115.136 2.17201 115.467L2.77094 114.666L3.36987 113.865ZM19.8138 127.72L19.181 128.495L19.8138 127.72ZM36.3735 133.924L36.327 134.923L36.3735 133.924ZM53.6336 129.506L53.1109 128.653L53.6336 129.506ZM59.5791 120.552L58.5793 120.535L59.5791 120.552ZM54.6386 112.82L55.4443 112.228L54.6386 112.82ZM43.4658 116.154L42.4658 116.147L43.4658 116.154ZM48.1886 123.267L48.8216 122.493L48.1886 123.267ZM65.8288 128.693L65.6401 127.711L65.8288 128.693ZM78.9526 119.791L78.2184 119.112L78.2112 119.12L78.2041 119.128L78.9526 119.791ZM97.0004 105.024C97.0144 104.472 96.5781 104.013 96.026 103.999L87.0289 103.771C86.4767 103.758 86.0179 104.194 86.0039 104.746C85.99 105.298 86.4262 105.757 86.9783 105.771L94.9758 105.973L94.7738 113.97C94.7598 114.522 95.1961 114.981 95.7482 114.995C96.3003 115.009 96.7592 114.573 96.7732 114.021L97.0004 105.024ZM2.77094 114.666L2.17201 115.467C6.47197 118.683 15.1111 125.169 19.181 128.495L19.8138 127.72L20.4466 126.946C16.3355 123.587 7.65574 117.071 3.36987 113.865L2.77094 114.666ZM19.8138 127.72L19.181 128.495C24.2078 132.602 30.6528 134.659 36.327 134.923L36.3735 133.924L36.42 132.925C31.1153 132.678 25.0975 130.747 20.4466 126.946L19.8138 127.72ZM36.3735 133.924L36.327 134.923C43.5345 135.259 49.3923 133.279 54.1563 130.358L53.6336 129.506L53.1109 128.653C48.6449 131.391 43.1791 133.24 36.42 132.925L36.3735 133.924ZM53.6336 129.506L54.1563 130.358C59.5801 127.033 60.5384 122.902 60.579 120.569L59.5791 120.552L58.5793 120.535C58.5489 122.282 57.8735 125.733 53.1109 128.653L53.6336 129.506ZM59.5791 120.552L60.579 120.569C60.6053 119.055 59.6931 117.604 58.7267 116.327C58.2244 115.663 57.653 114.981 57.0926 114.304C56.5255 113.62 55.9625 112.933 55.4443 112.228L54.6386 112.82L53.8328 113.413C54.389 114.169 54.9856 114.896 55.5524 115.58C56.126 116.273 56.6628 116.914 57.132 117.534C58.1087 118.825 58.5925 119.778 58.5793 120.535L59.5791 120.552ZM54.6386 112.82L55.4443 112.228C54.7036 111.221 53.5388 110.652 52.4298 110.326C51.3024 109.994 50.0983 109.873 49.1114 109.855L49.0926 110.854L49.0737 111.854C49.9469 111.871 50.9618 111.979 51.8654 112.245C52.7875 112.516 53.4656 112.913 53.8328 113.413L54.6386 112.82ZM49.0926 110.854L49.1114 109.855C46.9916 109.815 45.2818 110.569 44.1231 111.8L44.8514 112.486L45.5798 113.171C46.3216 112.382 47.4733 111.824 49.0737 111.854L49.0926 110.854ZM44.8514 112.486L44.1231 111.8C42.968 113.028 42.4763 114.632 42.4658 116.147L43.4658 116.154L44.4658 116.161C44.4735 115.048 44.8344 113.963 45.5798 113.171L44.8514 112.486ZM43.4658 116.154L42.4658 116.147C42.4549 117.715 43.1016 119.165 44.0303 120.456C44.9595 121.748 46.2193 122.949 47.5557 124.042L48.1886 123.267L48.8216 122.493C47.549 121.453 46.4384 120.379 45.654 119.288C44.869 118.197 44.4588 117.157 44.4658 116.161L43.4658 116.154ZM48.1886 123.267L47.5557 124.042C50.8974 126.774 54.9193 128.286 58.3542 129.066C61.7574 129.838 64.7295 129.923 66.0175 129.675L65.8288 128.693L65.6401 127.711C64.7381 127.884 62.0743 127.859 58.7969 127.115C55.5513 126.379 51.8481 124.968 48.8216 122.493L48.1886 123.267ZM65.8288 128.693L66.0175 129.675C70.9453 128.728 75.7818 124.878 79.7012 120.454L78.9526 119.791L78.2041 119.128C74.3712 123.454 69.9053 126.891 65.6401 127.711L65.8288 128.693ZM78.9526 119.791L79.6869 120.47C81.4975 118.511 83.6281 116.826 85.8682 115.112C88.0883 113.413 90.4262 111.678 92.5345 109.674L91.8455 108.949L91.1565 108.224C89.1448 110.137 86.9116 111.795 84.6528 113.523C82.414 115.237 80.1582 117.014 78.2184 119.112L78.9526 119.791ZM91.8455 108.949L92.5345 109.674C93.4274 108.825 94.1657 108.123 94.831 107.49C95.4962 106.858 96.0886 106.295 96.6898 105.723L96.0007 104.998L95.3117 104.274C94.7105 104.845 94.1182 105.408 93.4529 106.041C92.7876 106.673 92.0494 107.375 91.1565 108.224L91.8455 108.949Z" fill="#1D4841"/>
<path d="M86.9802 53.95C86.6202 53.85 86.3302 53.76 86.1102 53.68C85.8902 53.62 85.7802 53.59 85.7802 53.59C85.8202 53.49 85.8002 53.4 85.7202 53.32C85.6602 53.24 85.5202 53.19 85.3002 53.17C85.0002 52.97 84.6902 52.69 84.3702 52.33C84.0502 51.97 83.7702 51.6 83.5302 51.22C83.2902 50.84 83.1302 50.56 83.0502 50.38C82.9102 50.08 82.9202 49.9 83.0802 49.84C83.2402 49.76 83.4302 49.67 83.6502 49.57C83.8702 49.41 84.1002 49.29 84.3402 49.21C84.6002 49.13 84.8102 49.26 84.9702 49.6C85.2302 50.06 85.6302 50.45 86.1702 50.77C86.7302 51.09 87.3602 51.28 88.0602 51.34C88.7802 51.4 89.5002 51.28 90.2202 50.98C90.7002 50.76 90.9602 50.46 91.0002 50.08C91.0402 49.68 90.8902 49.22 90.5502 48.7C90.4902 48.54 90.4002 48.41 90.2802 48.31C90.1802 48.21 90.0202 48.08 89.8002 47.92C89.6002 47.76 89.3102 47.5 88.9302 47.14C88.6302 47 88.3502 46.87 88.0902 46.75C87.8502 46.63 87.5902 46.5 87.3102 46.36C86.9902 46.2 86.6302 45.98 86.2302 45.7C85.8302 45.4 85.4602 45.08 85.1202 44.74C84.7802 44.38 84.5202 44.04 84.3402 43.72C84.0202 43.42 83.8202 43.01 83.7402 42.49C83.6602 41.95 83.6702 41.38 83.7702 40.78C83.8902 40.18 84.0802 39.64 84.3402 39.16C84.4602 38.88 84.6802 38.52 85.0002 38.08C85.3202 37.62 85.6802 37.15 86.0802 36.67C86.4802 36.19 86.8602 35.76 87.2202 35.38C87.6002 34.98 87.9002 34.71 88.1202 34.57C88.2802 34.41 88.4502 34.25 88.6302 34.09C88.8102 33.91 88.9002 33.82 88.9002 33.82C88.9202 33.72 88.9502 33.67 88.9902 33.67C89.0502 33.67 89.0802 33.67 89.0802 33.67C89.1802 33.61 89.4002 33.51 89.7402 33.37C90.0802 33.23 90.4502 32.97 90.8502 32.59C92.1902 31.95 93.3302 31.52 94.2702 31.3C95.2102 31.06 95.9502 30.94 96.4902 30.94C96.9902 30.96 97.4802 31.1 97.9602 31.36C98.4402 31.6 98.8502 31.91 99.1902 32.29C99.5502 32.67 99.7602 33.1 99.8202 33.58C99.9602 34.06 99.8902 34.64 99.6102 35.32C99.3502 35.98 98.9802 36.61 98.5002 37.21C98.0402 37.79 97.5602 38.22 97.0602 38.5C96.5002 38.74 96.0202 38.77 95.6202 38.59C95.2402 38.41 95.0602 38.13 95.0802 37.75C95.0802 37.59 95.1302 37.4 95.2302 37.18C95.3502 36.96 95.6602 36.57 96.1602 36.01C96.8002 35.07 97.1402 34.4 97.1802 34C97.2202 33.6 97.0402 33.37 96.6402 33.31C96.5202 33.27 96.2902 33.28 95.9502 33.34C95.6102 33.4 95.2402 33.48 94.8402 33.58C94.4602 33.66 94.1202 33.75 93.8202 33.85C93.5402 33.95 93.4002 34.02 93.4002 34.06C93.4002 34.06 93.4002 34.09 93.4002 34.15C93.4002 34.21 93.3602 34.23 93.2802 34.21C93.2402 34.21 93.1002 34.28 92.8602 34.42C92.6402 34.54 92.3702 34.7 92.0502 34.9C91.7302 35.1 91.4102 35.31 91.0902 35.53C90.7902 35.73 90.5302 35.91 90.3102 36.07C90.0902 36.23 89.9702 36.33 89.9502 36.37C89.9102 36.59 89.6802 36.79 89.2602 36.97C88.8602 37.21 88.5102 37.55 88.2102 37.99C87.9102 38.43 87.5602 38.99 87.1602 39.67C86.8202 40.13 86.5802 40.63 86.4402 41.17C86.3002 41.69 86.3002 42.11 86.4402 42.43C86.5402 42.75 86.8102 43.07 87.2502 43.39C87.7102 43.69 88.3302 44.07 89.1102 44.53C89.7902 44.91 90.4302 45.31 91.0302 45.73C91.6302 46.15 92.1402 46.56 92.5602 46.96C92.9802 47.34 93.2502 47.66 93.3702 47.92C93.6102 48.26 93.7502 48.65 93.7902 49.09C93.8502 49.53 93.8502 49.96 93.7902 50.38C93.7502 50.78 93.6902 51.11 93.6102 51.37C93.4702 51.69 93.2502 52.03 92.9502 52.39C92.6702 52.75 92.4102 52.92 92.1702 52.9C91.9502 52.96 91.7802 53.03 91.6602 53.11C91.5602 53.19 91.4402 53.26 91.3002 53.32C91.1602 53.4 90.8302 53.49 90.3102 53.59C89.7902 53.71 89.2202 53.8 88.6002 53.86C87.9802 53.94 87.4402 53.97 86.9802 53.95ZM97.2808 51.37C97.2008 51.21 97.0208 51.05 96.7408 50.89C96.4808 50.73 96.3508 50.61 96.3508 50.53C96.3508 50.45 96.3008 50.33 96.2008 50.17C96.1208 49.99 96.0408 49.86 95.9608 49.78C95.8608 49.66 95.8908 49.37 96.0508 48.91C96.2108 48.43 96.4508 47.85 96.7708 47.17C97.0908 46.49 97.4408 45.8 97.8208 45.1C97.9808 44.94 98.1408 44.73 98.3008 44.47C98.4608 44.21 98.5808 44.04 98.6608 43.96C98.6608 43.88 98.6908 43.81 98.7508 43.75C98.8108 43.67 98.8808 43.63 98.9608 43.63L99.2008 43.15C99.2408 43.07 99.3608 42.91 99.5608 42.67C99.7808 42.43 100.041 42.17 100.341 41.89C100.641 41.59 100.941 41.31 101.241 41.05C101.561 40.79 101.821 40.6 102.021 40.48C102.441 40.2 102.871 40.07 103.311 40.09C103.771 40.11 104.161 40.25 104.481 40.51C104.541 40.57 104.671 40.69 104.871 40.87C105.091 41.05 105.331 41.25 105.591 41.47C105.871 41.69 106.111 41.89 106.311 42.07L107.421 43.06L106.911 44.56C106.651 45.36 106.581 46.06 106.701 46.66C106.821 47.26 107.011 47.78 107.271 48.22C107.371 48.44 107.501 48.61 107.661 48.73C107.841 48.85 108.071 48.93 108.351 48.97C108.511 48.99 108.661 49.05 108.801 49.15C108.941 49.25 109.011 49.41 109.011 49.63C109.011 50.11 108.921 50.46 108.741 50.68C108.581 50.88 108.401 51 108.201 51.04C107.541 51.12 106.911 51.05 106.311 50.83C105.711 50.61 105.171 50.04 104.691 49.12C104.611 49 104.501 48.78 104.361 48.46C104.241 48.12 104.171 47.9 104.151 47.8C104.071 47.9 103.961 48.03 103.821 48.19C103.701 48.33 103.581 48.46 103.461 48.58C102.041 50.02 100.821 50.96 99.8008 51.4C98.8008 51.82 97.9608 51.81 97.2808 51.37ZM98.9308 48.88C99.0708 48.9 99.2908 48.83 99.5908 48.67C99.8908 48.49 100.291 48.2 100.791 47.8C101.471 47.22 102.031 46.74 102.471 46.36C102.911 45.98 103.341 45.49 103.761 44.89L104.421 43.81C104.221 43.35 104.041 43.05 103.881 42.91C103.721 42.77 103.561 42.7 103.401 42.7C103.141 42.7 102.831 42.87 102.471 43.21C102.111 43.53 101.701 44.01 101.241 44.65C100.801 45.27 100.301 46.05 99.7408 46.99C99.4808 47.43 99.2808 47.86 99.1408 48.28C99.0008 48.68 98.9308 48.88 98.9308 48.88ZM111.734 50.41C111.594 50.29 111.404 49.93 111.164 49.33C110.944 48.73 110.724 48.03 110.504 47.23C110.304 46.43 110.144 45.69 110.024 45.01C109.944 44.61 109.854 44.27 109.754 43.99C109.674 43.71 109.604 43.48 109.544 43.3C109.444 42.94 109.474 42.56 109.634 42.16C109.814 41.76 110.024 41.49 110.264 41.35C110.364 41.29 110.544 41.25 110.804 41.23C111.084 41.19 111.264 41.18 111.344 41.2C111.584 41.28 111.804 41.65 112.004 42.31C112.204 42.95 112.384 43.8 112.544 44.86C112.624 45.48 112.684 45.94 112.724 46.24C112.784 46.52 112.814 46.7 112.814 46.78C112.894 46.94 112.944 47.14 112.964 47.38C113.004 47.6 113.104 47.63 113.264 47.47C113.344 47.39 113.464 47.25 113.624 47.05C113.804 46.85 114.014 46.59 114.254 46.27C114.674 45.71 115.004 45.25 115.244 44.89C115.504 44.51 115.794 44.12 116.114 43.72C116.254 43.52 116.444 43.3 116.684 43.06C116.924 42.82 117.164 42.6 117.404 42.4C117.644 42.18 117.844 42.05 118.004 42.01C118.484 41.93 118.774 42.11 118.874 42.55C118.994 42.97 118.854 43.46 118.454 44.02C118.294 44.26 118.164 44.49 118.064 44.71C117.984 44.91 117.904 45.05 117.824 45.13C117.664 45.45 117.414 45.86 117.074 46.36C116.734 46.84 116.404 47.29 116.084 47.71C115.764 48.11 115.544 48.37 115.424 48.49C115.344 48.57 115.164 48.72 114.884 48.94C114.624 49.16 114.374 49.44 114.134 49.78C113.654 50.24 113.194 50.52 112.754 50.62C112.314 50.72 111.974 50.65 111.734 50.41ZM122.325 52.54C121.225 52.54 120.375 52.22 119.775 51.58C119.195 50.94 118.905 49.96 118.905 48.64C118.905 47.92 119.035 47.13 119.295 46.27C119.575 45.41 119.935 44.57 120.375 43.75C120.835 42.93 121.335 42.22 121.875 41.62C122.415 41 122.955 40.57 123.495 40.33C123.695 40.23 123.905 40.16 124.125 40.12C124.365 40.06 124.595 40.03 124.815 40.03C125.055 40.03 125.315 40.05 125.595 40.09C125.895 40.11 126.175 40.17 126.435 40.27C126.895 40.41 127.295 40.68 127.635 41.08C127.995 41.48 128.175 42.06 128.175 42.82C128.175 43.02 128.155 43.24 128.115 43.48C128.075 43.7 128.005 43.92 127.905 44.14C127.645 44.8 127.245 45.43 126.705 46.03C126.185 46.63 125.635 47.05 125.055 47.29C124.895 47.37 124.735 47.43 124.575 47.47C124.435 47.49 124.285 47.5 124.125 47.5C123.705 47.5 123.325 47.44 122.985 47.32C122.665 47.2 122.365 47.04 122.085 46.84L121.845 46.63L121.695 46.93C121.555 47.31 121.455 47.63 121.395 47.89C121.355 48.15 121.335 48.34 121.335 48.46C121.335 48.7 121.345 48.95 121.365 49.21C121.385 49.45 121.445 49.65 121.545 49.81C121.625 49.91 121.725 49.99 121.845 50.05C121.985 50.11 122.155 50.14 122.355 50.14C122.475 50.14 122.585 50.14 122.685 50.14C122.805 50.12 122.905 50.1 122.985 50.08C123.345 50 123.635 49.87 123.855 49.69C124.095 49.49 124.345 49.32 124.605 49.18L124.725 49.12L124.695 49.03C125.035 48.85 125.265 48.74 125.385 48.7C125.505 48.64 125.595 48.59 125.655 48.55C125.735 48.47 125.825 48.43 125.925 48.43C126.205 48.39 126.475 48.47 126.735 48.67C127.015 48.85 127.155 49.08 127.155 49.36C127.155 49.48 127.065 49.67 126.885 49.93C126.725 50.19 126.515 50.45 126.255 50.71C126.015 50.95 125.765 51.14 125.505 51.28C125.445 51.3 125.385 51.33 125.325 51.37C125.265 51.39 125.205 51.42 125.145 51.46H125.175C124.995 51.7 124.815 51.82 124.635 51.82H124.395C124.315 51.96 124.055 52.11 123.615 52.27C123.175 52.45 122.745 52.54 122.325 52.54ZM123.885 45.31C124.065 45.31 124.225 45.28 124.365 45.22C124.525 45.16 124.675 45.09 124.815 45.01C125.295 44.67 125.605 44.23 125.745 43.69C125.885 43.15 125.835 42.74 125.595 42.46C125.555 42.4 125.505 42.36 125.445 42.34C125.385 42.3 125.315 42.28 125.235 42.28C125.015 42.28 124.765 42.35 124.485 42.49C124.225 42.63 123.965 42.83 123.705 43.09C123.445 43.35 123.205 43.66 122.985 44.02L122.595 44.65C122.635 44.63 122.665 44.62 122.685 44.62C122.725 44.6 122.755 44.59 122.775 44.59C122.955 44.59 123.075 44.65 123.135 44.77C123.195 44.89 123.265 45.01 123.345 45.13C123.445 45.25 123.625 45.31 123.885 45.31ZM143.51 52.36C143.43 52.36 143.23 52.22 142.91 51.94C142.61 51.66 142.46 51.24 142.46 50.68C142.48 50.06 142.58 49.41 142.76 48.73C142.96 48.03 143.15 47.41 143.33 46.87C143.45 46.51 143.55 46.21 143.63 45.97C143.73 45.73 143.78 45.58 143.78 45.52C143.76 45.52 143.65 45.54 143.45 45.58C143.27 45.62 143.04 45.67 142.76 45.73C141.78 45.93 141.03 46.03 140.51 46.03C140.01 46.03 139.58 45.73 139.22 45.13C139.1 45.01 138.94 44.79 138.74 44.47C138.54 44.15 138.4 43.8 138.32 43.42C138.26 43.04 138.36 42.72 138.62 42.46C138.82 41.96 138.98 41.6 139.1 41.38C139.22 41.16 139.3 41 139.34 40.9C139.4 40.8 139.43 40.7 139.43 40.6C139.45 40.56 139.48 40.5 139.52 40.42C139.56 40.34 139.61 40.26 139.67 40.18C139.85 39.88 140.1 39.49 140.42 39.01C140.76 38.53 141.11 38.05 141.47 37.57C141.85 37.07 142.19 36.63 142.49 36.25C142.79 35.85 143.01 35.59 143.15 35.47C143.27 35.41 143.48 35.32 143.78 35.2C144.1 35.08 144.33 35.02 144.47 35.02C144.63 35.02 144.78 35.13 144.92 35.35C145.08 35.55 145.21 35.76 145.31 35.98C145.41 36.2 145.46 36.35 145.46 36.43C145.46 36.43 145.45 36.45 145.43 36.49C145.41 36.53 145.37 36.6 145.31 36.7C145.23 36.82 145.11 36.98 144.95 37.18C144.81 37.38 144.6 37.64 144.32 37.96C144.08 38.24 143.78 38.65 143.42 39.19C143.06 39.71 142.7 40.27 142.34 40.87C142 41.45 141.71 41.97 141.47 42.43C141.23 42.89 141.11 43.2 141.11 43.36C141.11 43.46 141.14 43.54 141.2 43.6C141.28 43.64 141.42 43.66 141.62 43.66C141.88 43.62 142.11 43.58 142.31 43.54C142.53 43.5 142.73 43.46 142.91 43.42C143.13 43.38 143.32 43.34 143.48 43.3C143.64 43.24 143.79 43.19 143.93 43.15C144.09 43.09 144.23 43.04 144.35 43C144.49 42.94 144.61 42.87 144.71 42.79C144.95 42.59 145.13 42.32 145.25 41.98C145.37 41.64 145.56 41.18 145.82 40.6C145.98 40.2 146.14 39.84 146.3 39.52C146.48 39.18 146.64 38.87 146.78 38.59C147.28 37.67 147.7 37 148.04 36.58C148.38 36.14 148.57 35.92 148.61 35.92C148.67 35.92 148.81 36 149.03 36.16C149.25 36.32 149.46 36.49 149.66 36.67C149.82 36.81 149.95 36.94 150.05 37.06C150.15 37.16 150.2 37.23 150.2 37.27C150.2 37.51 150.14 37.76 150.02 38.02C149.92 38.26 149.77 38.54 149.57 38.86C149.37 39.18 149.14 39.59 148.88 40.09C148.58 40.67 148.3 41.25 148.04 41.83C147.78 42.39 147.53 42.95 147.29 43.51C147.05 44.05 146.83 44.58 146.63 45.1C146.43 45.62 146.24 46.11 146.06 46.57C145.62 47.75 145.32 48.62 145.16 49.18C145 49.74 144.92 50.13 144.92 50.35C144.94 50.55 144.98 50.72 145.04 50.86C145.04 51.12 144.96 51.37 144.8 51.61C144.64 51.83 144.44 52.01 144.2 52.15C143.96 52.29 143.73 52.36 143.51 52.36ZM155.876 51.91C155.736 51.91 155.476 51.86 155.096 51.76C154.736 51.66 154.356 51.54 153.956 51.4C153.576 51.24 153.276 51.07 153.056 50.89C152.376 50.31 151.886 49.67 151.586 48.97C151.286 48.25 151.106 47.52 151.046 46.78C151.006 46.04 151.036 45.34 151.136 44.68C151.356 43.4 151.816 42.13 152.516 40.87C153.216 39.59 154.056 38.53 155.036 37.69C155.556 37.23 156.076 36.84 156.596 36.52C157.116 36.2 157.676 35.97 158.276 35.83C158.496 35.77 158.806 35.74 159.206 35.74C159.626 35.72 159.906 35.71 160.046 35.71C160.446 35.71 160.886 35.8 161.366 35.98C161.866 36.14 162.296 36.34 162.656 36.58C163.016 36.8 163.196 37.01 163.196 37.21C163.196 37.35 163.186 37.49 163.166 37.63C163.146 37.77 163.056 37.8 162.896 37.72H162.596L162.896 38.62C162.976 38.78 163.046 39 163.106 39.28C163.166 39.54 163.196 39.78 163.196 40C163.196 40.2 163.166 40.5 163.106 40.9C163.066 41.28 162.996 41.69 162.896 42.13C162.816 42.57 162.726 42.98 162.626 43.36C162.546 43.74 162.466 44.02 162.386 44.2C162.326 44.32 162.286 44.44 162.266 44.56C162.266 44.66 162.266 44.75 162.266 44.83C162.186 44.99 162.056 45.27 161.876 45.67C161.696 46.07 161.566 46.35 161.486 46.51C161.406 46.59 161.336 46.66 161.276 46.72C161.236 46.78 161.256 46.85 161.336 46.93C161.336 46.99 161.286 47.13 161.186 47.35C161.086 47.55 160.976 47.74 160.856 47.92C160.756 48.1 160.676 48.19 160.616 48.19C160.616 48.19 160.586 48.2 160.526 48.22C160.486 48.22 160.466 48.25 160.466 48.31C160.466 48.39 160.326 48.6 160.046 48.94C159.786 49.28 159.476 49.63 159.116 49.99C158.916 50.19 158.596 50.45 158.156 50.77C157.716 51.07 157.276 51.34 156.836 51.58C156.416 51.8 156.096 51.91 155.876 51.91ZM155.816 49.03C156.036 49.03 156.246 49 156.446 48.94C156.646 48.86 156.816 48.75 156.956 48.61C157.316 48.37 157.656 48.05 157.976 47.65C158.316 47.25 158.596 46.79 158.816 46.27C159.036 45.97 159.206 45.66 159.326 45.34C159.466 45 159.676 44.43 159.956 43.63C160.116 43.41 160.226 43.14 160.286 42.82C160.346 42.5 160.376 42.23 160.376 42.01C160.376 41.79 160.376 41.49 160.376 41.11C160.396 40.73 160.446 40.41 160.526 40.15C160.526 39.63 160.516 39.33 160.496 39.25C160.476 39.15 160.396 39.02 160.256 38.86C160.176 38.8 160.066 38.74 159.926 38.68C159.806 38.62 159.676 38.59 159.536 38.59C159.396 38.59 159.206 38.63 158.966 38.71C158.746 38.77 158.556 38.85 158.396 38.95C158.256 39.03 158.096 39.04 157.916 38.98C157.756 38.92 157.676 38.84 157.676 38.74C157.676 38.46 157.536 38.48 157.256 38.8C156.996 39.1 156.646 39.52 156.206 40.06C155.846 40.42 155.536 40.79 155.276 41.17C155.036 41.53 154.916 41.75 154.916 41.83C154.916 41.91 154.886 42.01 154.826 42.13C154.766 42.25 154.706 42.39 154.646 42.55C154.546 42.69 154.426 42.92 154.286 43.24C154.146 43.56 154.006 43.88 153.866 44.2C153.746 44.5 153.666 44.73 153.626 44.89C153.626 44.97 153.626 45.19 153.626 45.55C153.626 45.89 153.626 46.21 153.626 46.51C153.626 46.85 153.636 47.1 153.656 47.26C153.676 47.42 153.706 47.55 153.746 47.65C153.806 47.75 153.886 47.9 153.986 48.1C154.066 48.24 154.186 48.41 154.346 48.61C154.526 48.79 154.646 48.92 154.706 49C154.926 49.2 155.066 49.28 155.126 49.24C155.206 49.18 155.436 49.11 155.816 49.03ZM165.692 46.84C165.572 46.84 165.422 46.84 165.242 46.84C165.062 46.82 164.862 46.77 164.642 46.69C164.342 46.69 164.102 46.63 163.922 46.51C163.762 46.37 163.642 46.23 163.562 46.09C163.342 45.79 163.352 45.56 163.592 45.4C163.852 45.22 164.352 45.09 165.092 45.01C165.432 44.93 165.932 44.87 166.592 44.83C167.272 44.77 168.002 44.73 168.782 44.71C169.562 44.67 170.302 44.64 171.002 44.62C171.702 44.6 172.252 44.59 172.652 44.59C173.172 44.59 173.632 44.64 174.032 44.74C174.452 44.84 174.772 45 174.992 45.22C175.292 45.52 175.362 45.84 175.202 46.18C175.042 46.5 174.732 46.62 174.272 46.54C174.172 46.54 173.982 46.55 173.702 46.57C173.422 46.59 173.112 46.61 172.772 46.63C172.452 46.65 172.172 46.67 171.932 46.69C171.812 46.69 171.482 46.7 170.942 46.72C170.402 46.74 169.772 46.76 169.052 46.78C168.352 46.8 167.682 46.82 167.042 46.84C166.422 46.84 165.972 46.84 165.692 46.84ZM169.712 51.52C169.412 51.74 169.172 51.73 168.992 51.49C168.832 51.23 168.712 50.73 168.632 49.99C168.552 49.65 168.482 49.15 168.422 48.49C168.382 47.81 168.342 47.08 168.302 46.3C168.282 45.52 168.262 44.78 168.242 44.08C168.222 43.38 168.212 42.83 168.212 42.43C168.212 41.91 168.262 41.45 168.362 41.05C168.462 40.63 168.612 40.31 168.812 40.09C169.112 39.79 169.432 39.72 169.772 39.88C170.112 40.04 170.242 40.35 170.162 40.81C170.182 40.91 170.192 41.1 170.192 41.38C170.212 41.66 170.232 41.97 170.252 42.31C170.272 42.63 170.292 42.91 170.312 43.15C170.312 43.27 170.322 43.6 170.342 44.14C170.362 44.68 170.382 45.31 170.402 46.03C170.422 46.73 170.432 47.4 170.432 48.04C170.452 48.66 170.462 49.11 170.462 49.39C170.462 49.51 170.452 49.66 170.432 49.84C170.432 50.02 170.392 50.22 170.312 50.44C170.312 50.74 170.242 50.98 170.102 51.16C169.982 51.32 169.852 51.44 169.712 51.52ZM185.416 50.86C185.276 50.88 185.116 50.83 184.936 50.71C184.776 50.57 184.626 50.45 184.486 50.35C184.286 50.11 184.146 49.9 184.066 49.72C183.986 49.54 183.946 49.34 183.946 49.12C183.946 48.9 183.966 48.64 184.006 48.34C184.106 48.02 184.226 47.59 184.366 47.05C184.506 46.51 184.676 45.93 184.876 45.31C184.916 45.07 184.986 44.79 185.086 44.47C185.206 44.13 185.326 43.81 185.446 43.51C185.566 43.19 185.656 42.95 185.716 42.79C185.856 42.29 185.996 41.81 186.136 41.35C186.296 40.89 186.486 40.36 186.706 39.76C186.926 39.16 187.196 38.4 187.516 37.48C187.956 36.28 188.286 35.38 188.506 34.78C188.726 34.18 188.886 33.75 188.986 33.49C189.086 33.23 189.156 33.02 189.196 32.86C189.196 32.7 189.306 32.55 189.526 32.41C189.766 32.25 189.976 32.17 190.156 32.17C190.436 32.19 190.706 32.36 190.966 32.68C191.226 32.98 191.406 33.35 191.506 33.79C191.606 34.21 191.536 34.62 191.296 35.02C190.976 35.74 190.656 36.55 190.336 37.45C190.036 38.33 189.736 39.21 189.436 40.09C189.136 40.97 188.836 41.78 188.536 42.52C188.516 42.62 188.446 42.79 188.326 43.03C188.226 43.27 188.136 43.47 188.056 43.63C187.976 43.79 187.896 43.94 187.816 44.08C187.756 44.22 187.726 44.29 187.726 44.29C187.706 44.41 187.666 44.58 187.606 44.8C187.546 45.02 187.486 45.21 187.426 45.37C187.406 45.47 187.376 45.6 187.336 45.76C187.296 45.92 187.266 46.08 187.246 46.24C187.346 46.12 187.486 45.98 187.666 45.82C187.846 45.64 188.076 45.42 188.356 45.16C188.676 44.88 188.956 44.64 189.196 44.44C189.436 44.24 189.676 44.06 189.916 43.9C190.136 43.74 190.336 43.59 190.516 43.45C190.716 43.31 190.816 43.24 190.816 43.24C190.856 43.18 190.896 43.11 190.936 43.03C190.996 42.95 191.056 42.9 191.116 42.88C191.156 42.84 191.226 42.79 191.326 42.73C191.426 42.65 191.526 42.57 191.626 42.49C191.806 42.37 191.996 42.27 192.196 42.19C192.396 42.11 192.606 42.05 192.826 42.01C193.046 41.97 193.256 41.95 193.456 41.95C193.696 41.95 193.946 42.05 194.206 42.25C194.466 42.43 194.706 42.69 194.926 43.03C195.126 43.29 195.246 43.6 195.286 43.96C195.346 44.3 195.356 44.76 195.316 45.34C195.316 45.5 195.266 45.8 195.166 46.24C195.086 46.68 195.026 47.01 194.986 47.23L194.716 48.25H194.956C195.176 48.17 195.386 48.16 195.586 48.22C195.806 48.28 195.916 48.31 195.916 48.31C196.016 48.37 196.106 48.44 196.186 48.52C196.286 48.6 196.376 48.66 196.456 48.7C196.576 48.86 196.556 49.09 196.396 49.39C196.236 49.69 196.056 49.9 195.856 50.02C195.376 50.34 194.946 50.54 194.566 50.62C194.206 50.7 193.826 50.63 193.426 50.41C193.046 50.15 192.786 49.84 192.646 49.48C192.526 49.12 192.476 48.63 192.496 48.01C192.576 47.13 192.626 46.5 192.646 46.12C192.666 45.72 192.566 45.52 192.346 45.52C192.106 45.52 191.776 45.64 191.356 45.88C190.956 46.1 190.506 46.41 190.006 46.81C189.506 47.19 189.006 47.62 188.506 48.1C188.026 48.56 187.596 49.03 187.216 49.51C186.976 49.81 186.716 50.11 186.436 50.41C186.156 50.69 185.816 50.84 185.416 50.86ZM200.466 51.79C200.206 51.79 199.996 51.74 199.836 51.64C199.696 51.54 199.516 51.4 199.296 51.22C198.916 50.82 198.606 50.39 198.366 49.93C198.146 49.47 198.066 49.07 198.126 48.73C198.186 48.57 198.206 48.42 198.186 48.28C198.186 48.12 198.186 48.04 198.186 48.04C198.086 47.94 198.056 47.88 198.096 47.86C198.136 47.82 198.176 47.76 198.216 47.68C198.336 47.68 198.376 47.57 198.336 47.35C198.296 47.19 198.356 46.85 198.516 46.33C198.696 45.79 198.936 45.28 199.236 44.8C199.356 44.6 199.536 44.34 199.776 44.02C200.016 43.68 200.276 43.35 200.556 43.03C200.856 42.69 201.126 42.42 201.366 42.22C201.866 41.8 202.326 41.46 202.746 41.2C203.186 40.94 203.626 40.76 204.066 40.66C204.506 40.56 204.956 40.51 205.416 40.51C205.896 40.51 206.286 40.67 206.586 40.99C207.046 41.19 207.366 41.46 207.546 41.8C207.746 42.14 207.876 42.58 207.936 43.12C207.996 43.72 207.936 44.46 207.756 45.34C207.576 46.2 207.086 47.2 206.286 48.34C205.786 49.06 205.296 49.62 204.816 50.02C204.336 50.42 203.806 50.79 203.226 51.13C202.806 51.41 202.356 51.58 201.876 51.64C201.396 51.7 200.926 51.75 200.466 51.79ZM203.526 48.13C203.966 47.75 204.276 47.33 204.456 46.87C204.656 46.41 204.866 45.87 205.086 45.25C205.166 45.13 205.216 44.93 205.236 44.65C205.276 44.37 205.286 44.1 205.266 43.84C205.246 43.56 205.176 43.4 205.056 43.36C204.876 43.22 204.696 43.19 204.516 43.27C204.336 43.33 204.106 43.46 203.826 43.66C203.226 44.16 202.666 44.74 202.146 45.4C201.646 46.04 201.296 46.83 201.096 47.77C201.036 48.27 201.086 48.65 201.246 48.91C201.426 49.15 201.706 49.22 202.086 49.12C202.486 49 202.966 48.67 203.526 48.13ZM216.585 52.18C216.445 52.26 216.255 52.23 216.015 52.09C215.795 51.95 215.575 51.74 215.355 51.46C215.215 51.22 215.105 50.98 215.025 50.74C214.965 50.48 214.935 50.1 214.935 49.6C214.955 49.2 214.955 48.93 214.935 48.79C214.935 48.63 214.845 48.62 214.665 48.76C214.505 48.88 214.175 49.18 213.675 49.66C213.175 50.16 212.695 50.59 212.235 50.95C211.795 51.29 211.435 51.45 211.155 51.43C211.015 51.43 210.825 51.34 210.585 51.16C210.345 50.98 210.115 50.76 209.895 50.5C209.675 50.22 209.515 49.96 209.415 49.72C209.295 49.24 209.285 48.62 209.385 47.86C209.505 47.1 209.695 46.31 209.955 45.49C210.215 44.65 210.505 43.87 210.825 43.15C211.165 42.41 211.495 41.82 211.815 41.38C212.155 40.92 212.445 40.7 212.685 40.72C213.025 40.76 213.315 40.93 213.555 41.23C213.815 41.51 214.015 41.82 214.155 42.16C214.235 42.3 214.265 42.42 214.245 42.52C214.245 42.62 214.165 42.74 214.005 42.88C213.825 43.12 213.605 43.47 213.345 43.93C213.105 44.37 212.855 44.85 212.595 45.37C212.355 45.89 212.135 46.39 211.935 46.87C211.755 47.33 211.625 47.71 211.545 48.01C211.465 48.31 211.465 48.46 211.545 48.46C211.825 48.46 212.085 48.39 212.325 48.25C212.565 48.09 212.865 47.84 213.225 47.5C213.645 47.08 214.015 46.66 214.335 46.24C214.655 45.8 214.985 45.3 215.325 44.74C215.585 44.34 215.855 43.9 216.135 43.42C216.435 42.94 216.625 42.6 216.705 42.4C216.985 41.88 217.195 41.49 217.335 41.23C217.475 40.97 217.645 40.81 217.845 40.75C217.945 40.75 218.085 40.75 218.265 40.75C218.445 40.75 218.535 40.75 218.535 40.75C218.655 40.77 218.795 40.86 218.955 41.02C219.115 41.1 219.275 41.21 219.435 41.35C219.615 41.49 219.705 41.61 219.705 41.71C219.625 41.91 219.495 42.21 219.315 42.61C219.155 42.99 219.035 43.27 218.955 43.45C218.575 44.31 218.205 45.16 217.845 46C217.505 46.82 217.255 47.66 217.095 48.52C217.055 48.8 217.045 49.13 217.065 49.51C217.105 49.87 217.165 50.13 217.245 50.29C217.305 50.41 217.375 50.55 217.455 50.71C217.555 50.85 217.665 50.97 217.785 51.07C217.965 51.19 217.955 51.34 217.755 51.52C217.575 51.7 217.345 51.86 217.065 52C216.805 52.12 216.645 52.18 216.585 52.18ZM222.799 51.37C222.739 51.39 222.609 51.38 222.409 51.34C222.229 51.3 222.039 51.25 221.839 51.19C221.659 51.13 221.549 51.08 221.509 51.04C221.429 50.96 221.319 50.82 221.179 50.62C221.039 50.4 220.959 50.11 220.939 49.75C220.939 49.39 221.109 48.96 221.449 48.46C221.549 48.26 221.669 47.96 221.809 47.56C221.949 47.16 222.089 46.74 222.229 46.3C222.389 45.84 222.529 45.43 222.649 45.07C222.789 44.71 222.889 44.46 222.949 44.32C222.989 43.98 222.969 43.74 222.889 43.6C222.829 43.44 222.659 43.35 222.379 43.33C222.179 43.33 222.019 43.26 221.899 43.12C221.799 42.98 221.749 42.73 221.749 42.37C221.789 42.09 221.859 41.85 221.959 41.65C222.079 41.43 222.239 41.25 222.439 41.11C222.639 41.01 222.889 40.94 223.189 40.9C223.509 40.86 223.819 40.85 224.119 40.87C224.419 40.89 224.629 40.96 224.749 41.08C224.889 41.16 224.999 41.34 225.079 41.62C225.179 41.88 225.259 42.15 225.319 42.43C225.379 42.71 225.419 42.92 225.439 43.06C225.639 42.9 225.859 42.68 226.099 42.4C226.359 42.1 226.619 41.82 226.879 41.56C227.199 41.34 227.579 41.12 228.019 40.9C228.459 40.66 228.779 40.54 228.979 40.54C229.199 40.54 229.469 40.65 229.789 40.87C230.109 41.07 230.309 41.25 230.389 41.41C230.589 41.75 230.729 42.11 230.809 42.49C230.909 42.85 230.849 43.17 230.629 43.45C230.429 43.71 230.149 43.97 229.789 44.23C229.429 44.47 228.979 44.54 228.439 44.44C228.319 44.4 228.189 44.25 228.049 43.99C227.929 43.73 227.859 43.54 227.839 43.42C227.839 43.36 227.749 43.42 227.569 43.6C227.409 43.76 227.209 43.96 226.969 44.2C226.749 44.44 226.539 44.66 226.339 44.86C225.999 45.28 225.639 45.85 225.259 46.57C224.879 47.29 224.429 48.16 223.909 49.18C223.669 49.68 223.469 50.16 223.309 50.62C223.149 51.06 222.979 51.31 222.799 51.37ZM234.179 52.21C233.119 52.21 232.339 51.87 231.839 51.19C231.699 50.87 231.629 50.55 231.629 50.23C231.649 49.89 231.729 49.65 231.869 49.51C232.009 49.35 232.179 49.38 232.379 49.6C232.639 49.76 233.009 49.84 233.489 49.84C233.729 49.84 233.939 49.84 234.119 49.84C234.319 49.82 234.549 49.8 234.809 49.78C235.269 49.74 235.559 49.6 235.679 49.36C235.819 49.12 235.789 48.92 235.589 48.76H235.619C235.079 48.62 234.549 48.42 234.029 48.16C233.509 47.9 233.069 47.61 232.709 47.29C232.349 46.95 232.139 46.63 232.079 46.33C231.919 45.67 231.959 44.99 232.199 44.29C232.439 43.59 232.789 42.98 233.249 42.46C233.429 42.34 233.679 42.17 233.999 41.95C234.319 41.71 234.549 41.58 234.689 41.56V41.59C235.069 41.19 235.499 40.87 235.979 40.63C236.459 40.37 237.019 40.13 237.659 39.91L238.139 39.85C238.379 39.81 238.589 39.79 238.769 39.79C238.749 39.79 238.799 39.81 238.919 39.85C239.039 39.89 239.139 39.92 239.219 39.94C239.339 40 239.459 40.03 239.579 40.03C239.859 40.07 240.129 40.22 240.389 40.48C240.669 40.72 240.889 41.01 241.049 41.35C241.229 41.67 241.299 41.97 241.259 42.25C241.199 42.71 241.029 43.17 240.749 43.63C240.469 44.07 240.169 44.32 239.849 44.38C239.889 44.36 239.849 44.32 239.729 44.26C239.609 44.2 239.499 44.14 239.399 44.08L239.279 44.14C239.279 44.14 239.269 44.11 239.249 44.05C239.249 43.99 239.229 43.92 239.189 43.84C239.109 43.7 239.049 43.55 239.009 43.39C238.989 43.23 238.989 43.05 239.009 42.85C239.049 42.63 239.059 42.5 239.039 42.46C239.019 42.42 238.899 42.39 238.679 42.37C238.419 42.31 238.089 42.34 237.689 42.46C237.289 42.56 236.919 42.74 236.579 43C236.179 43.26 235.879 43.47 235.679 43.63C235.499 43.79 235.359 43.95 235.259 44.11C235.159 44.25 235.049 44.46 234.929 44.74C234.849 44.88 234.779 45.01 234.719 45.13C234.659 45.23 234.629 45.33 234.629 45.43C234.629 45.63 234.799 45.84 235.139 46.06C235.479 46.26 235.989 46.5 236.669 46.78C237.209 47 237.559 47.3 237.719 47.68C237.899 48.06 238.059 48.42 238.199 48.76C238.239 48.84 238.279 48.99 238.319 49.21C238.379 49.41 238.389 49.53 238.349 49.57C238.389 49.61 238.409 49.65 238.409 49.69V49.66C238.569 49.96 238.539 50.28 238.319 50.62C238.119 50.94 237.799 51.24 237.359 51.52C236.919 51.78 236.419 51.97 235.859 52.09H235.889C235.589 52.13 235.289 52.16 234.989 52.18C234.709 52.2 234.439 52.21 234.179 52.21ZM84.0102 89.73C83.2302 89.41 82.6902 88.89 82.3902 88.17C82.0902 87.45 82.0102 86.49 82.1502 85.29C82.1902 84.67 82.1702 84.26 82.0902 84.06C82.0102 83.84 81.8602 83.63 81.6402 83.43C81.5802 83.35 81.4402 83.22 81.2202 83.04C81.0002 82.84 80.9002 82.69 80.9202 82.59C80.9002 82.45 80.9302 82.28 81.0102 82.08C81.0902 81.86 81.1602 81.74 81.2202 81.72C81.3602 81.66 81.5002 81.59 81.6402 81.51C81.8002 81.43 81.9202 81.41 82.0002 81.45C82.0802 81.45 82.2002 81.5 82.3602 81.6C82.5402 81.7 82.6302 81.79 82.6302 81.87C82.7102 82.01 82.8302 81.95 82.9902 81.69C83.1702 81.43 83.3602 81.1 83.5602 80.7C83.7602 80.38 84.0102 80.08 84.3102 79.8C84.6102 79.52 84.9102 79.27 85.2102 79.05C85.5302 78.81 85.8002 78.63 86.0202 78.51C86.1202 78.47 86.3102 78.41 86.5902 78.33C86.8902 78.25 87.2002 78.19 87.5202 78.15C87.8402 78.09 88.0802 78.07 88.2402 78.09C88.6002 78.11 88.9802 78.26 89.3802 78.54C89.7802 78.82 90.0902 79.08 90.3102 79.32C90.5702 79.5 90.7402 79.78 90.8202 80.16C90.9202 80.52 90.9602 80.9 90.9402 81.3C90.9202 81.7 90.8402 82.04 90.7002 82.32C90.6402 82.52 90.4302 82.8 90.0702 83.16C89.7102 83.52 89.3102 83.87 88.8702 84.21C88.4502 84.53 88.0902 84.75 87.7902 84.87C87.5302 84.93 87.2202 84.98 86.8602 85.02C86.5002 85.04 86.1602 85.04 85.8402 85.02C85.5402 84.98 85.3302 84.93 85.2102 84.87C85.0702 84.79 84.9502 84.82 84.8502 84.96C84.7702 85.08 84.7002 85.42 84.6402 85.98C84.6202 86.2 84.6202 86.39 84.6402 86.55C84.6802 86.71 84.7202 86.83 84.7602 86.91C84.9002 87.15 85.0402 87.33 85.1802 87.45C85.3202 87.55 85.5802 87.58 85.9602 87.54C86.3402 87.5 86.7202 87.27 87.1002 86.85C87.5002 86.41 87.8602 86.06 88.1802 85.8C88.2602 85.66 88.4302 85.57 88.6902 85.53C88.9702 85.47 89.3002 85.49 89.6802 85.59C89.9002 85.73 90.0002 85.95 89.9802 86.25C89.9802 86.55 89.8202 86.99 89.5002 87.57C89.4402 87.71 89.2702 87.92 88.9902 88.2C88.7302 88.46 88.4402 88.73 88.1202 89.01C87.8202 89.27 87.5702 89.46 87.3702 89.58C86.7702 89.9 86.1802 90.05 85.6002 90.03C85.0202 90.01 84.4902 89.91 84.0102 89.73ZM86.2302 82.98C86.5302 82.9 86.7802 82.82 86.9802 82.74C87.2002 82.66 87.4102 82.53 87.6102 82.35C87.8102 82.17 88.0402 81.9 88.3002 81.54C88.3802 81.32 88.4202 81.13 88.4202 80.97C88.4402 80.81 88.4302 80.71 88.3902 80.67C88.2302 80.51 88.0502 80.46 87.8502 80.52C87.6702 80.56 87.4702 80.66 87.2502 80.82C87.1102 80.88 86.9102 81.01 86.6502 81.21C86.4102 81.39 86.1702 81.6 85.9302 81.84C85.7102 82.06 85.5302 82.27 85.3902 82.47C85.2702 82.65 85.2502 82.76 85.3302 82.8C85.2902 82.88 85.4002 82.93 85.6602 82.95C85.9402 82.97 86.1302 82.98 86.2302 82.98ZM94.3898 88.41C94.2498 88.29 94.0598 87.93 93.8198 87.33C93.5998 86.73 93.3798 86.03 93.1598 85.23C92.9598 84.43 92.7998 83.69 92.6798 83.01C92.5998 82.61 92.5098 82.27 92.4098 81.99C92.3298 81.71 92.2598 81.48 92.1998 81.3C92.0998 80.94 92.1298 80.56 92.2898 80.16C92.4698 79.76 92.6798 79.49 92.9198 79.35C93.0198 79.29 93.1998 79.25 93.4598 79.23C93.7398 79.19 93.9198 79.18 93.9998 79.2C94.2398 79.28 94.4598 79.65 94.6598 80.31C94.8598 80.95 95.0398 81.8 95.1998 82.86C95.2798 83.48 95.3398 83.94 95.3798 84.24C95.4398 84.52 95.4698 84.7 95.4698 84.78C95.5498 84.94 95.5998 85.14 95.6198 85.38C95.6598 85.6 95.7598 85.63 95.9198 85.47C95.9998 85.39 96.1198 85.25 96.2798 85.05C96.4598 84.85 96.6698 84.59 96.9098 84.27C97.3298 83.71 97.6598 83.25 97.8998 82.89C98.1598 82.51 98.4498 82.12 98.7698 81.72C98.9098 81.52 99.0998 81.3 99.3398 81.06C99.5798 80.82 99.8198 80.6 100.06 80.4C100.3 80.18 100.5 80.05 100.66 80.01C101.14 79.93 101.43 80.11 101.53 80.55C101.65 80.97 101.51 81.46 101.11 82.02C100.95 82.26 100.82 82.49 100.72 82.71C100.64 82.91 100.56 83.05 100.48 83.13C100.32 83.45 100.07 83.86 99.7298 84.36C99.3898 84.84 99.0598 85.29 98.7398 85.71C98.4198 86.11 98.1998 86.37 98.0798 86.49C97.9998 86.57 97.8198 86.72 97.5398 86.94C97.2798 87.16 97.0298 87.44 96.7898 87.78C96.3098 88.24 95.8498 88.52 95.4098 88.62C94.9698 88.72 94.6298 88.65 94.3898 88.41ZM107.741 89.4C107.141 89.74 106.501 89.94 105.821 90C105.161 90.04 104.541 89.95 103.961 89.73C103.381 89.49 102.911 89.14 102.551 88.68C102.351 88.42 102.161 88.01 101.981 87.45C101.801 86.87 101.771 86.09 101.891 85.11C102.011 84.19 102.291 83.26 102.731 82.32C103.191 81.38 103.751 80.55 104.411 79.83C105.071 79.11 105.791 78.62 106.571 78.36C106.851 78.26 107.131 78.19 107.411 78.15C107.711 78.09 108.101 78.08 108.581 78.12C109.041 78.18 109.451 78.3 109.811 78.48C110.171 78.64 110.431 78.82 110.591 79.02C110.911 79.34 111.121 79.65 111.221 79.95C111.321 80.25 111.361 80.54 111.341 80.82C111.241 81.46 110.951 82.15 110.471 82.89C110.011 83.63 109.361 84.18 108.521 84.54C108.181 84.68 107.781 84.77 107.321 84.81C106.861 84.85 106.231 84.79 105.431 84.63C104.951 84.53 104.631 84.58 104.471 84.78C104.331 84.98 104.271 85.37 104.291 85.95C104.331 86.31 104.411 86.63 104.531 86.91C104.671 87.17 104.921 87.35 105.281 87.45C105.741 87.53 106.071 87.54 106.271 87.48C106.471 87.4 106.721 87.29 107.021 87.15C107.181 87.05 107.331 86.94 107.471 86.82C107.631 86.7 107.781 86.58 107.921 86.46C108.081 86.34 108.211 86.25 108.311 86.19C108.411 86.11 108.511 86.06 108.611 86.04C108.711 86.02 108.811 86.01 108.911 86.01C109.131 86.03 109.341 86.15 109.541 86.37C109.741 86.59 109.871 86.8 109.931 87C109.931 87.16 109.831 87.39 109.631 87.69C109.431 87.97 109.161 88.27 108.821 88.59C108.501 88.89 108.141 89.16 107.741 89.4ZM107.351 82.71C107.491 82.65 107.691 82.51 107.951 82.29C108.231 82.07 108.481 81.84 108.701 81.6C108.921 81.34 109.031 81.14 109.031 81C109.031 80.78 108.881 80.59 108.581 80.43C108.301 80.27 107.931 80.24 107.471 80.34C107.311 80.38 107.121 80.49 106.901 80.67C106.681 80.85 106.461 81.06 106.241 81.3C106.021 81.52 105.831 81.74 105.671 81.96C105.511 82.16 105.401 82.32 105.341 82.44C105.421 82.54 105.581 82.62 105.821 82.68C106.061 82.74 106.321 82.77 106.601 82.77C106.901 82.77 107.151 82.75 107.351 82.71ZM114.371 89.37C114.311 89.39 114.181 89.38 113.981 89.34C113.801 89.3 113.611 89.25 113.411 89.19C113.231 89.13 113.121 89.08 113.081 89.04C113.001 88.96 112.891 88.82 112.751 88.62C112.611 88.4 112.531 88.11 112.511 87.75C112.511 87.39 112.681 86.96 113.021 86.46C113.121 86.26 113.241 85.96 113.381 85.56C113.521 85.16 113.661 84.74 113.801 84.3C113.961 83.84 114.101 83.43 114.221 83.07C114.361 82.71 114.461 82.46 114.521 82.32C114.561 81.98 114.541 81.74 114.461 81.6C114.401 81.44 114.231 81.35 113.951 81.33C113.751 81.33 113.591 81.26 113.471 81.12C113.371 80.98 113.321 80.73 113.321 80.37C113.361 80.09 113.431 79.85 113.531 79.65C113.651 79.43 113.811 79.25 114.011 79.11C114.211 79.01 114.461 78.94 114.761 78.9C115.081 78.86 115.391 78.85 115.691 78.87C115.991 78.89 116.201 78.96 116.321 79.08C116.461 79.16 116.571 79.34 116.651 79.62C116.751 79.88 116.831 80.15 116.891 80.43C116.951 80.71 116.991 80.92 117.011 81.06C117.211 80.9 117.431 80.68 117.671 80.4C117.931 80.1 118.191 79.82 118.451 79.56C118.771 79.34 119.151 79.12 119.591 78.9C120.031 78.66 120.351 78.54 120.551 78.54C120.771 78.54 121.041 78.65 121.361 78.87C121.681 79.07 121.881 79.25 121.961 79.41C122.161 79.75 122.301 80.11 122.381 80.49C122.481 80.85 122.421 81.17 122.201 81.45C122.001 81.71 121.721 81.97 121.361 82.23C121.001 82.47 120.551 82.54 120.011 82.44C119.891 82.4 119.761 82.25 119.621 81.99C119.501 81.73 119.431 81.54 119.411 81.42C119.411 81.36 119.321 81.42 119.141 81.6C118.981 81.76 118.781 81.96 118.541 82.2C118.321 82.44 118.111 82.66 117.911 82.86C117.571 83.28 117.211 83.85 116.831 84.57C116.451 85.29 116.001 86.16 115.481 87.18C115.241 87.68 115.041 88.16 114.881 88.62C114.721 89.06 114.551 89.31 114.371 89.37ZM124.461 97.14C124.381 97.16 124.261 97.13 124.101 97.05C123.961 96.97 123.841 96.83 123.741 96.63C123.641 96.43 123.611 96.17 123.651 95.85C123.571 95.57 123.581 95.22 123.681 94.8C123.801 94.4 124.051 93.8 124.431 93C124.631 92.68 124.811 92.3 124.971 91.86C125.151 91.42 125.351 90.98 125.571 90.54C125.671 90.36 125.841 90.05 126.081 89.61C126.341 89.17 126.621 88.65 126.921 88.05C127.241 87.43 127.531 86.79 127.791 86.13C127.271 86.67 126.821 87.18 126.441 87.66C126.081 88.12 125.751 88.49 125.451 88.77C125.171 89.03 124.871 89.15 124.551 89.13C124.291 89.07 123.981 88.9 123.621 88.62C123.261 88.34 123.031 88.03 122.931 87.69C122.851 87.25 122.821 86.69 122.841 86.01C122.881 85.33 123.011 84.3 123.231 82.92C123.391 82.24 123.461 81.72 123.441 81.36C123.441 80.98 123.391 80.7 123.291 80.52C123.191 80.34 123.061 80.18 122.901 80.04C122.641 79.8 122.621 79.54 122.841 79.26C123.061 78.98 123.311 78.77 123.591 78.63C124.011 78.53 124.341 78.51 124.581 78.57C124.841 78.61 125.101 78.78 125.361 79.08C125.521 79.34 125.681 79.62 125.841 79.92C126.001 80.22 126.081 80.65 126.081 81.21C126.081 81.45 126.071 81.72 126.051 82.02C126.031 82.3 126.011 82.56 125.991 82.8C125.971 83.04 125.951 83.23 125.931 83.37C125.731 84.11 125.551 84.75 125.391 85.29C125.231 85.83 125.201 86.1 125.301 86.1C125.701 85.78 126.041 85.47 126.321 85.17C126.621 84.87 126.941 84.51 127.281 84.09C127.621 83.67 128.041 83.12 128.541 82.44C128.721 82.1 128.901 81.77 129.081 81.45C129.261 81.13 129.411 80.8 129.531 80.46C129.651 80.2 129.811 79.93 130.011 79.65C130.211 79.35 130.351 79.19 130.431 79.17C130.531 79.13 130.671 79.14 130.851 79.2C131.031 79.26 131.201 79.33 131.361 79.41C131.541 79.47 131.631 79.52 131.631 79.56C131.651 79.58 131.751 79.6 131.931 79.62C132.111 79.64 132.291 79.66 132.471 79.68C132.651 79.68 132.741 79.71 132.741 79.77C132.741 79.81 132.681 79.96 132.561 80.22C132.461 80.48 132.341 80.77 132.201 81.09C132.061 81.41 131.931 81.7 131.811 81.96C131.711 82.2 131.671 82.34 131.691 82.38C131.731 82.42 131.701 82.57 131.601 82.83C131.501 83.07 131.381 83.34 131.241 83.64C131.121 83.94 131.011 84.21 130.911 84.45C130.711 85.11 130.481 85.77 130.221 86.43C129.961 87.07 129.651 87.71 129.291 88.35C129.171 88.59 128.991 88.96 128.751 89.46C128.531 89.96 128.311 90.45 128.091 90.93C127.891 91.43 127.731 91.81 127.611 92.07C127.531 92.23 127.411 92.48 127.251 92.82C127.111 93.18 126.951 93.57 126.771 93.99C126.611 94.41 126.451 94.8 126.291 95.16C126.131 95.54 126.011 95.83 125.931 96.03C125.891 96.41 125.801 96.69 125.661 96.87C125.481 97.05 125.231 97.14 124.911 97.14C124.611 97.14 124.461 97.14 124.461 97.14ZM157.522 91.44C157.442 91.52 157.252 91.54 156.952 91.5C156.652 91.48 156.412 91.34 156.232 91.08C156.092 90.8 156.012 90.48 155.992 90.12C155.972 89.76 155.972 89.26 155.992 88.62C156.112 87.92 156.312 87 156.592 85.86C156.872 84.72 157.182 83.45 157.522 82.05C157.882 80.63 158.242 79.18 158.602 77.7C158.782 77 158.922 76.41 159.022 75.93C159.142 75.45 159.222 75.09 159.262 74.85C159.322 74.59 159.352 74.46 159.352 74.46C159.332 74.5 159.302 74.54 159.262 74.58C159.242 74.62 159.222 74.66 159.202 74.7C159.182 74.74 159.162 74.78 159.142 74.82C159.142 74.82 159.102 74.89 159.022 75.03C158.962 75.17 158.822 75.41 158.602 75.75C158.442 75.99 158.292 76.27 158.152 76.59C158.012 76.91 157.772 77.33 157.432 77.85C157.112 78.45 156.752 79.14 156.352 79.92C155.952 80.7 155.612 81.32 155.332 81.78C155.192 82 155.062 82.19 154.942 82.35C154.842 82.51 154.772 82.64 154.732 82.74C154.652 82.96 154.522 83.23 154.342 83.55C154.162 83.87 153.952 84.18 153.712 84.48C153.592 84.66 153.432 84.87 153.232 85.11C153.052 85.35 152.892 85.57 152.752 85.77C152.612 85.95 152.542 86.04 152.542 86.04C152.502 86.16 152.372 86.35 152.152 86.61C151.932 86.87 151.662 87.16 151.342 87.48C151.042 87.78 150.732 88.06 150.412 88.32C149.712 88.88 149.132 89.23 148.672 89.37C148.232 89.51 147.722 89.34 147.142 88.86C146.882 88.54 146.672 88.22 146.512 87.9C146.352 87.56 146.272 87.1 146.272 86.52C146.272 85.94 146.372 85.13 146.572 84.09C146.712 83.43 146.862 82.73 147.022 81.99C147.202 81.25 147.382 80.54 147.562 79.86C147.742 79.16 147.902 78.56 148.042 78.06C148.202 77.54 148.312 77.18 148.372 76.98C148.432 76.48 148.442 76.22 148.402 76.2C148.362 76.16 148.262 76.27 148.102 76.53C147.962 76.75 147.702 77.21 147.322 77.91C146.942 78.61 146.512 79.43 146.032 80.37C145.572 81.31 145.122 82.25 144.682 83.19C143.862 84.71 143.172 85.98 142.612 87C142.052 88.02 141.592 88.84 141.232 89.46C140.872 90.06 140.592 90.51 140.392 90.81C140.212 91.13 140.072 91.35 139.972 91.47C139.892 91.61 139.832 91.7 139.792 91.74C139.492 91.72 139.232 91.58 139.012 91.32C138.792 91.06 138.612 90.75 138.472 90.39C138.432 90.19 138.402 89.98 138.382 89.76C138.362 89.54 138.382 89.3 138.442 89.04C138.522 88.76 138.642 88.46 138.802 88.14C139.062 87.62 139.312 87.18 139.552 86.82C139.792 86.46 139.942 86.24 140.002 86.16C140.102 86.02 140.182 85.87 140.242 85.71C140.302 85.55 140.342 85.4 140.362 85.26C140.462 85.14 140.612 84.89 140.812 84.51C141.032 84.13 141.252 83.72 141.472 83.28C141.632 83.02 141.852 82.66 142.132 82.2C142.412 81.72 142.712 81.21 143.032 80.67C143.352 80.11 143.632 79.6 143.872 79.14C144.752 77.56 145.452 76.3 145.972 75.36C146.492 74.4 146.862 73.79 147.082 73.53C147.222 73.43 147.342 73.24 147.442 72.96C147.562 72.66 147.662 72.44 147.742 72.3C148.022 71.74 148.302 71.28 148.582 70.92C148.882 70.54 149.142 70.35 149.362 70.35C149.522 70.35 149.722 70.41 149.962 70.53C150.222 70.65 150.472 70.82 150.712 71.04C150.932 71.3 151.132 71.65 151.312 72.09C151.512 72.51 151.552 73.07 151.432 73.77C151.412 74.09 151.362 74.48 151.282 74.94C151.202 75.38 151.122 75.82 151.042 76.26C150.962 76.7 150.882 77.07 150.802 77.37C150.642 78.27 150.462 79.13 150.262 79.95C150.082 80.75 149.912 81.49 149.752 82.17C149.592 82.85 149.462 83.45 149.362 83.97C149.262 84.47 149.192 84.88 149.152 85.2C149.132 85.52 149.172 85.73 149.272 85.83C149.332 85.85 149.412 85.83 149.512 85.77C149.632 85.69 149.722 85.61 149.782 85.53C149.902 85.37 150.012 85.21 150.112 85.05C150.212 84.89 150.342 84.69 150.502 84.45C150.822 84.01 151.152 83.53 151.492 83.01C151.852 82.47 152.272 81.81 152.752 81.03C153.252 80.23 153.842 79.25 154.522 78.09C155.202 76.91 156.032 75.45 157.012 73.71C157.472 73.01 157.912 72.31 158.332 71.61C158.752 70.91 159.132 70.37 159.472 69.99C159.772 69.67 160.142 69.56 160.582 69.66C161.042 69.76 161.462 70.01 161.842 70.41C162.222 70.81 162.432 71.3 162.472 71.88C162.492 72.16 162.432 72.66 162.292 73.38C162.172 74.08 162.002 74.87 161.782 75.75C161.562 76.63 161.312 77.49 161.032 78.33C160.972 78.67 160.872 79.12 160.732 79.68C160.592 80.24 160.442 80.81 160.282 81.39C160.122 81.97 159.972 82.49 159.832 82.95C159.692 83.63 159.572 84.17 159.472 84.57C159.392 84.97 159.352 85.43 159.352 85.95C159.172 86.27 159.052 86.73 158.992 87.33C158.932 87.93 158.902 88.55 158.902 89.19C158.822 89.97 158.652 90.52 158.392 90.84C158.152 91.16 157.992 91.31 157.912 91.29C157.752 91.23 157.622 91.28 157.522 91.44ZM164.977 89.76C164.557 89.84 164.237 89.82 164.017 89.7C163.817 89.56 163.607 89.39 163.387 89.19C163.067 89.03 162.777 88.81 162.517 88.53C162.257 88.23 162.057 87.92 161.917 87.6C161.777 87.28 161.717 87.03 161.737 86.85C161.797 86.15 161.957 85.39 162.217 84.57C162.497 83.75 162.847 82.95 163.267 82.17C163.707 81.39 164.197 80.7 164.737 80.1C165.297 79.48 165.897 79.03 166.537 78.75C166.937 78.59 167.367 78.53 167.827 78.57C168.287 78.61 168.597 78.8 168.757 79.14C169.057 79.72 168.987 80.09 168.547 80.25C168.487 80.25 168.417 80.28 168.337 80.34C168.257 80.38 168.217 80.44 168.217 80.52C168.297 80.56 168.517 80.57 168.877 80.55C169.237 80.51 169.597 80.45 169.957 80.37C170.337 80.27 170.587 80.17 170.707 80.07C170.827 80.01 170.917 79.98 170.977 79.98C171.037 79.98 171.187 80 171.427 80.04C171.767 80.14 171.937 80.26 171.937 80.4C171.937 80.48 171.967 80.61 172.027 80.79C172.087 80.95 172.157 81.03 172.237 81.03C172.377 81.05 172.407 81.19 172.327 81.45C172.267 81.71 172.037 81.98 171.637 82.26C171.257 82.5 171.017 82.66 170.917 82.74C170.837 82.8 170.827 82.94 170.887 83.16C171.047 83.54 171.037 84 170.857 84.54C170.677 85.08 170.377 85.64 169.957 86.22C169.537 86.8 169.037 87.35 168.457 87.87C167.897 88.37 167.307 88.8 166.687 89.16C166.087 89.5 165.517 89.7 164.977 89.76ZM165.067 87.24C165.147 87.24 165.287 87.2 165.487 87.12C165.687 87.02 165.847 86.94 165.967 86.88C166.047 86.8 166.147 86.71 166.267 86.61C166.407 86.49 166.517 86.42 166.597 86.4C166.677 86.4 166.727 86.37 166.747 86.31C166.767 86.23 166.837 86.08 166.957 85.86C167.077 85.62 167.317 85.27 167.677 84.81C168.077 84.37 168.337 84.02 168.457 83.76C168.577 83.48 168.587 83.18 168.487 82.86C168.467 82.78 168.407 82.73 168.307 82.71C168.227 82.69 168.117 82.64 167.977 82.56C167.777 82.56 167.637 82.61 167.557 82.71C167.497 82.79 167.357 82.74 167.137 82.56L166.657 81.96L166.147 82.47C165.827 82.79 165.537 83.19 165.277 83.67C165.037 84.15 164.847 84.64 164.707 85.14C164.567 85.64 164.477 86.08 164.437 86.46C164.417 86.76 164.467 86.96 164.587 87.06C164.707 87.16 164.867 87.22 165.067 87.24ZM183.286 89.28C182.846 89.24 182.476 89.15 182.176 89.01C181.896 88.85 181.666 88.54 181.486 88.08C181.406 87.76 181.366 87.43 181.366 87.09C181.386 86.73 181.416 86.39 181.456 86.07C181.496 85.73 181.516 85.44 181.516 85.2C181.516 85.16 181.516 85.08 181.516 84.96C181.516 84.84 181.516 84.73 181.516 84.63C181.476 84.33 181.396 84.15 181.276 84.09C181.176 84.01 180.996 84.02 180.736 84.12C180.316 84.32 179.856 84.59 179.356 84.93C178.876 85.25 178.366 85.63 177.826 86.07C177.306 86.49 176.766 86.94 176.206 87.42C175.766 87.9 175.436 88.29 175.216 88.59C175.016 88.89 174.806 89.04 174.586 89.04C174.426 89.12 174.256 89.1 174.076 88.98C173.896 88.86 173.706 88.72 173.506 88.56C173.366 88.4 173.196 88.2 172.996 87.96C172.816 87.7 172.706 87.53 172.666 87.45C172.666 87.13 172.686 86.84 172.726 86.58C172.786 86.32 172.866 86.05 172.966 85.77C173.086 85.49 173.226 85.17 173.386 84.81C173.466 84.67 173.536 84.53 173.596 84.39C173.676 84.23 173.766 84.06 173.866 83.88C173.946 83.6 174.056 83.28 174.196 82.92C174.356 82.56 174.506 82.22 174.646 81.9C174.866 81.38 175.036 80.93 175.156 80.55C175.276 80.17 175.376 79.76 175.456 79.32C175.436 79.28 175.446 79.22 175.486 79.14C175.526 79.06 175.586 79.01 175.666 78.99H175.696H175.726C175.866 78.89 176.126 78.88 176.506 78.96C176.906 79.02 177.206 79.13 177.406 79.29C177.826 79.65 178.026 80.12 178.006 80.7C177.986 81.28 177.686 82.04 177.106 82.98C176.966 83.3 176.816 83.6 176.656 83.88C176.516 84.14 176.446 84.32 176.446 84.42C176.446 84.42 176.526 84.36 176.686 84.24C176.846 84.12 177.036 83.98 177.256 83.82C177.476 83.64 177.666 83.5 177.826 83.4C177.926 83.3 178.146 83.12 178.486 82.86C178.826 82.58 179.196 82.29 179.596 81.99C179.996 81.69 180.316 81.46 180.556 81.3C180.776 81.14 181.056 80.98 181.396 80.82C181.736 80.64 181.946 80.55 182.026 80.55C182.226 80.55 182.466 80.62 182.746 80.76C183.046 80.9 183.316 81.07 183.556 81.27C183.816 81.45 183.966 81.62 184.006 81.78C184.006 81.86 183.996 81.97 183.976 82.11C183.956 82.23 183.946 82.34 183.946 82.44C183.926 82.76 183.916 83.15 183.916 83.61C183.936 84.05 183.946 84.5 183.946 84.96C183.946 85.4 183.906 85.8 183.826 86.16C183.826 86.16 183.836 86.18 183.856 86.22C183.876 86.24 183.896 86.28 183.916 86.34C183.896 86.36 183.886 86.4 183.886 86.46C183.906 86.5 183.916 86.52 183.916 86.52C183.956 86.66 183.996 86.8 184.036 86.94C184.096 87.08 184.166 87.24 184.246 87.42C184.326 87.58 184.416 87.79 184.516 88.05C184.496 88.31 184.346 88.57 184.066 88.83C183.806 89.07 183.546 89.22 183.286 89.28ZM190.666 90.18C190.386 90.1 190.106 89.96 189.826 89.76C189.546 89.56 189.256 89.33 188.956 89.07C188.716 88.75 188.546 88.46 188.446 88.2C188.346 87.92 188.286 87.6 188.266 87.24C188.266 86.86 188.266 86.38 188.266 85.8C188.266 85.56 188.306 85.22 188.386 84.78C188.486 84.34 188.586 83.88 188.686 83.4C188.806 82.92 188.916 82.5 189.016 82.14C189.116 81.76 189.176 81.51 189.196 81.39C189.256 81.13 189.156 80.98 188.896 80.94C188.636 80.9 188.346 80.89 188.026 80.91C187.726 80.91 187.526 80.88 187.426 80.82C187.346 80.8 187.306 80.7 187.306 80.52C187.306 80.32 187.306 80.22 187.306 80.22C187.306 80.14 187.266 80.09 187.186 80.07C187.106 80.03 187.036 79.96 186.976 79.86C186.936 79.78 186.986 79.63 187.126 79.41C187.266 79.19 187.446 79.06 187.666 79.02C187.846 78.98 188.116 78.95 188.476 78.93C188.836 78.89 189.196 78.82 189.556 78.72C189.936 78.6 190.226 78.42 190.426 78.18C190.606 77.74 190.806 77.27 191.026 76.77C191.246 76.25 191.456 75.8 191.656 75.42C191.856 75.02 191.996 74.77 192.076 74.67C192.416 74.49 192.766 74.42 193.126 74.46C193.486 74.48 193.766 74.65 193.966 74.97C194.066 75.11 194.146 75.21 194.206 75.27C194.286 75.33 194.316 75.42 194.296 75.54C194.296 75.66 194.216 75.88 194.056 76.2C193.916 76.5 193.676 76.97 193.336 77.61C193.236 77.81 193.146 77.99 193.066 78.15C192.986 78.29 192.946 78.36 192.946 78.36C193.026 78.38 193.146 78.39 193.306 78.39C193.466 78.39 193.666 78.38 193.906 78.36C194.126 78.32 194.366 78.29 194.626 78.27C194.886 78.23 195.116 78.23 195.316 78.27C195.776 78.27 196.116 78.4 196.336 78.66C196.556 78.92 196.676 79.25 196.696 79.65C196.736 79.87 196.656 80.06 196.456 80.22C196.256 80.38 195.886 80.46 195.346 80.46C195.166 80.46 194.906 80.47 194.566 80.49C194.226 80.51 193.876 80.53 193.516 80.55C193.156 80.57 192.846 80.6 192.586 80.64C192.346 80.66 192.226 80.69 192.226 80.73C192.166 80.77 192.066 80.93 191.926 81.21C191.806 81.47 191.676 81.79 191.536 82.17C191.416 82.55 191.306 82.91 191.206 83.25C191.066 83.93 190.966 84.59 190.906 85.23C190.846 85.87 190.836 86.43 190.876 86.91C190.936 87.37 191.056 87.7 191.236 87.9C191.416 88.08 191.686 88.08 192.046 87.9C192.426 87.7 192.776 87.47 193.096 87.21C193.456 86.91 193.766 86.82 194.026 86.94C194.286 87.04 194.446 87.26 194.506 87.6C194.586 87.92 194.496 88.27 194.236 88.65C193.996 89.03 193.656 89.35 193.216 89.61C192.776 89.87 192.326 90.05 191.866 90.15C191.406 90.27 191.006 90.28 190.666 90.18ZM207.498 89.79C207.118 89.89 206.718 89.96 206.298 90C205.898 90.06 205.548 89.94 205.248 89.64C205.068 89.36 204.908 89.11 204.768 88.89C204.628 88.67 204.538 88.28 204.498 87.72C204.478 87.34 204.498 86.93 204.558 86.49C204.638 86.03 204.668 85.7 204.648 85.5C204.808 84.76 204.848 84.23 204.768 83.91C204.708 83.59 204.628 83.43 204.528 83.43C204.308 83.39 203.958 83.55 203.478 83.91C203.018 84.27 202.468 84.78 201.828 85.44C201.208 86.08 200.538 86.81 199.818 87.63C199.438 88.15 199.158 88.54 198.978 88.8C198.818 89.04 198.698 89.16 198.618 89.16C198.258 89.16 197.928 89.1 197.628 88.98C197.328 88.86 197.088 88.69 196.908 88.47C196.728 88.25 196.618 88.02 196.578 87.78C196.578 87.7 196.628 87.49 196.728 87.15C196.828 86.79 196.948 86.38 197.088 85.92C197.228 85.46 197.358 85.03 197.478 84.63C197.618 84.23 197.718 83.95 197.778 83.79C197.958 83.27 198.168 82.64 198.408 81.9C198.668 81.14 198.898 80.47 199.098 79.89C199.178 79.63 199.318 79.26 199.518 78.78C199.718 78.28 199.918 77.78 200.118 77.28C200.318 76.78 200.458 76.41 200.538 76.17C200.598 76.01 200.708 75.73 200.868 75.33C201.028 74.91 201.198 74.45 201.378 73.95C201.578 73.45 201.758 72.99 201.918 72.57C202.098 72.13 202.218 71.81 202.278 71.61C202.258 71.43 202.268 71.27 202.308 71.13C202.368 70.97 202.428 70.85 202.488 70.77C202.568 70.77 202.658 70.77 202.758 70.77C202.858 70.75 202.908 70.74 202.908 70.74C202.908 70.7 203.038 70.74 203.298 70.86C203.578 70.98 203.848 71.13 204.108 71.31C204.388 71.47 204.528 71.61 204.528 71.73C204.628 71.99 204.638 72.33 204.558 72.75C204.478 73.15 204.268 73.76 203.928 74.58C203.708 74.9 203.488 75.38 203.268 76.02C203.068 76.66 202.868 77.2 202.668 77.64C202.588 77.78 202.468 78.03 202.308 78.39C202.168 78.73 201.998 79.14 201.798 79.62C201.618 80.08 201.438 80.57 201.258 81.09C201.078 81.61 200.918 82.12 200.778 82.62C200.578 83.1 200.508 83.42 200.568 83.58C200.628 83.74 200.868 83.56 201.288 83.04C201.848 82.44 202.368 81.9 202.848 81.42C203.348 80.94 203.808 80.56 204.228 80.28C204.668 79.98 205.058 79.85 205.398 79.89C205.578 79.93 205.808 80.06 206.088 80.28C206.388 80.48 206.668 80.72 206.928 81C207.208 81.26 207.388 81.51 207.468 81.75C207.548 82.03 207.598 82.3 207.618 82.56C207.658 82.82 207.668 83.19 207.648 83.67C207.628 84.13 207.578 84.82 207.498 85.74C207.378 86.42 207.298 86.91 207.258 87.21C207.218 87.49 207.228 87.69 207.288 87.81C207.368 87.93 207.488 88.06 207.648 88.2C207.948 88.44 208.068 88.73 208.008 89.07C207.948 89.39 207.778 89.63 207.498 89.79Z" fill="#1D4841"/>
</svg>
